<svg width="272" height="255" viewBox="0 0 272 255" fill="none" xmlns="http://www.w3.org/2000/svg">
<path d="M113.334 10.625H107.667V15.9375H113.334V10.625Z" fill="#F8D933"/>
<path d="M119 10.625H113.333V15.9375H119V10.625Z" fill="#F9DA33"/>
<path d="M124.667 10.625H119V15.9375H124.667V10.625Z" fill="#FADB33"/>
<path d="M130.334 10.625H124.667V15.9375H130.334V10.625Z" fill="#FBDB33"/>
<path d="M136 10.625H130.333V15.9375H136V10.625Z" fill="#FBDC33"/>
<path d="M141.667 10.625H136V15.9375H141.667V10.625Z" fill="#FCDD33"/>
<path d="M147.334 10.625H141.667V15.9375H147.334V10.625Z" fill="#FDDE33"/>
<path d="M153 10.625H147.333V15.9375H153V10.625Z" fill="#FEDF33"/>
<path d="M158.667 10.625H153V15.9375H158.667V10.625Z" fill="#FFDF33"/>
<path d="M164.334 10.625H158.667V15.9375H164.334V10.625Z" fill="#FFDF33"/>
<path d="M102 15.9375H96.333V21.25H102V15.9375Z" fill="#F3D533"/>
<path d="M107.667 15.9375H102V21.25H107.667V15.9375Z" fill="#F4D633"/>
<path d="M113.334 15.9375H107.667V21.25H113.334V15.9375Z" fill="#F5D733"/>
<path d="M119 15.9375H113.333V21.25H119V15.9375Z" fill="#F6D733"/>
<path d="M124.667 15.9375H119V21.25H124.667V15.9375Z" fill="#F7D833"/>
<path d="M130.334 15.9375H124.667V21.25H130.334V15.9375Z" fill="#F7D933"/>
<path d="M136 15.9375H130.333V21.25H136V15.9375Z" fill="#F9DA33"/>
<path d="M141.667 15.9375H136V21.25H141.667V15.9375Z" fill="#FADB33"/>
<path d="M147.334 15.9375H141.667V21.25H147.334V15.9375Z" fill="#FBDB33"/>
<path d="M153 15.9375H147.333V21.25H153V15.9375Z" fill="#FBDC33"/>
<path d="M158.667 15.9375H153V21.25H158.667V15.9375Z" fill="#FCDD33"/>
<path d="M164.334 15.9375H158.667V21.25H164.334V15.9375Z" fill="#FDDE33"/>
<path d="M170 15.9375H164.333V21.25H170V15.9375Z" fill="#FEDF33"/>
<path d="M175.667 15.9375H170V21.25H175.667V15.9375Z" fill="#FFDF33"/>
<path d="M96.3337 21.25H90.667V26.5625H96.3337V21.25Z" fill="#EFD233"/>
<path d="M102 21.25H96.333V26.5625H102V21.25Z" fill="#F0D333"/>
<path d="M107.667 21.25H102V26.5625H107.667V21.25Z" fill="#F2D333"/>
<path d="M113.334 21.25H107.667V26.5625H113.334V21.25Z" fill="#F3D433"/>
<path d="M119 21.25H113.333V26.5625H119V21.25Z" fill="#F3D533"/>
<path d="M124.667 21.25H119V26.5625H124.667V21.25Z" fill="#F4D633"/>
<path d="M130.334 21.25H124.667V26.5625H130.334V21.25Z" fill="#F5D733"/>
<path d="M136 21.25H130.333V26.5625H136V21.25Z" fill="#F6D733"/>
<path d="M141.667 21.25H136V26.5625H141.667V21.25Z" fill="#F7D833"/>
<path d="M147.334 21.25H141.667V26.5625H147.334V21.25Z" fill="#F7D933"/>
<path d="M153 21.25H147.333V26.5625H153V21.25Z" fill="#F9DA33"/>
<path d="M158.667 21.25H153V26.5625H158.667V21.25Z" fill="#FADB33"/>
<path d="M164.334 21.25H158.667V26.5625H164.334V21.25Z" fill="#FBDB33"/>
<path d="M170 21.25H164.333V26.5625H170V21.25Z" fill="#FBDC33"/>
<path d="M175.667 21.25H170V26.5625H175.667V21.25Z" fill="#FCDD33"/>
<path d="M181.334 21.25H175.667V26.5625H181.334V21.25Z" fill="#FDDE33"/>
<path d="M96.3337 26.5625H90.667V31.875H96.3337V26.5625Z" fill="#EDCF33"/>
<path d="M102 26.5625H96.333V31.875H102V26.5625Z" fill="#EED033"/>
<path d="M107.667 26.5625H102V31.875H107.667V26.5625Z" fill="#EFD133"/>
<path d="M113.334 26.5625H107.667V31.875H113.334V26.5625Z" fill="#EFD233"/>
<path d="M119 26.5625H113.333V31.875H119V26.5625Z" fill="#F0D333"/>
<path d="M124.667 26.5625H119V31.875H124.667V26.5625Z" fill="#F1D333"/>
<path d="M130.334 26.5625H124.667V31.875H130.334V26.5625Z" fill="#F3D433"/>
<path d="M136 26.5625H130.333V31.875H136V26.5625Z" fill="#F3D533"/>
<path d="M141.667 26.5625H136V31.875H141.667V26.5625Z" fill="#F4D633"/>
<path d="M147.334 26.5625H141.667V31.875H147.334V26.5625Z" fill="#F5D733"/>
<path d="M153 26.5625H147.333V31.875H153V26.5625Z" fill="#F6D733"/>
<path d="M158.667 26.5625H153V31.875H158.667V26.5625Z" fill="#F7D833"/>
<path d="M164.334 26.5625H158.667V31.875H164.334V26.5625Z" fill="#F7D933"/>
<path d="M170 26.5625H164.333V31.875H170V26.5625Z" fill="#F9DA33"/>
<path d="M175.667 26.5625H170V31.875H175.667V26.5625Z" fill="#FADB33"/>
<path d="M181.334 26.5625H175.667V31.875H181.334V26.5625Z" fill="#FBDB33"/>
<path d="M90.6667 31.875H85V37.1875H90.6667V31.875Z" fill="#E9CD33"/>
<path d="M96.3337 31.875H90.667V37.1875H96.3337V31.875Z" fill="#EACD33"/>
<path d="M102 31.875H96.333V37.1875H102V31.875Z" fill="#EBCE33"/>
<path d="M107.667 31.875H102V37.1875H107.667V31.875Z" fill="#ECCF33"/>
<path d="M113.334 31.875H107.667V37.1875H113.334V31.875Z" fill="#EDCF33"/>
<path d="M119 31.875H113.333V37.1875H119V31.875Z" fill="#EED033"/>
<path d="M124.667 31.875H119V37.1875H124.667V31.875Z" fill="#EFD133"/>
<path d="M130.334 31.875H124.667V37.1875H130.334V31.875Z" fill="#EFD233"/>
<path d="M136 31.875H130.333V37.1875H136V31.875Z" fill="#F0D333"/>
<path d="M141.667 31.875H136V37.1875H141.667V31.875Z" fill="#F1D333"/>
<path d="M147.334 31.875H141.667V37.1875H147.334V31.875Z" fill="#F3D433"/>
<path d="M153 31.875H147.333V37.1875H153V31.875Z" fill="#F3D533"/>
<path d="M158.667 31.875H153V37.1875H158.667V31.875Z" fill="#F4D633"/>
<path d="M164.334 31.875H158.667V37.1875H164.334V31.875Z" fill="#F5D733"/>
<path d="M170 31.875H164.333V37.1875H170V31.875Z" fill="#F6D733"/>
<path d="M175.667 31.875H170V37.1875H175.667V31.875Z" fill="#F7D833"/>
<path d="M181.334 31.875H175.667V37.1875H181.334V31.875Z" fill="#F7D933"/>
<path d="M187 31.875H181.333V37.1875H187V31.875Z" fill="#F8DA33"/>
<path d="M90.6667 37.1875H85V42.5H90.6667V37.1875Z" fill="#E7CB33"/>
<path d="M96.3337 37.1875H90.667V42.5H96.3337V37.1875Z" fill="#E7CB33"/>
<path d="M102 37.1875H96.333V42.5H102V37.1875Z" fill="#E8CC33"/>
<path d="M107.667 37.1875H102V42.5H107.667V37.1875Z" fill="#E9CC33"/>
<path d="M113.334 37.1875H107.667V42.5H113.334V37.1875Z" fill="#EACD33"/>
<path d="M119 37.1875H113.333V42.5H119V37.1875Z" fill="#EBCE33"/>
<path d="M124.667 37.1875H119V42.5H124.667V37.1875Z" fill="#ECCF33"/>
<path d="M130.334 37.1875H124.667V42.5H130.334V37.1875Z" fill="#EDCF33"/>
<path d="M136 37.1875H130.333V42.5H136V37.1875Z" fill="#EED033"/>
<path d="M141.667 37.1875H136V42.5H141.667V37.1875Z" fill="#EFD133"/>
<path d="M147.334 37.1875H141.667V42.5H147.334V37.1875Z" fill="#EFD233"/>
<path d="M153 37.1875H147.333V42.5H153V37.1875Z" fill="#F0D333"/>
<path d="M158.667 37.1875H153V42.5H158.667V37.1875Z" fill="#F1D333"/>
<path d="M164.334 37.1875H158.667V42.5H164.334V37.1875Z" fill="#F3D433"/>
<path d="M170 37.1875H164.333V42.5H170V37.1875Z" fill="#F3D533"/>
<path d="M175.667 37.1875H170V42.5H175.667V37.1875Z" fill="#F4D633"/>
<path d="M181.334 37.1875H175.667V42.5H181.334V37.1875Z" fill="#F5D733"/>
<path d="M187 37.1875H181.333V42.5H187V37.1875Z" fill="#F6D733"/>
<path d="M90.6667 42.5H85V47.8125H90.6667V42.5Z" fill="#E3C833"/>
<path d="M96.3337 42.5H90.667V47.8125H96.3337V42.5Z" fill="#E5C933"/>
<path d="M102 42.5H96.333V47.8125H102V42.5Z" fill="#E6CA33"/>
<path d="M107.667 42.5H102V47.8125H107.667V42.5Z" fill="#E7CB33"/>
<path d="M113.334 42.5H107.667V47.8125H113.334V42.5Z" fill="#E7CB33"/>
<path d="M119 42.5H113.333V47.8125H119V42.5Z" fill="#E8CC33"/>
<path d="M124.667 42.5H119V47.8125H124.667V42.5Z" fill="#E9CC33"/>
<path d="M130.334 42.5H124.667V47.8125H130.334V42.5Z" fill="#EACD33"/>
<path d="M136 42.5H130.333V47.8125H136V42.5Z" fill="#EBCE33"/>
<path d="M141.667 42.5H136V47.8125H141.667V42.5Z" fill="#ECCF33"/>
<path d="M147.334 42.5H141.667V47.8125H147.334V42.5Z" fill="#EDCF33"/>
<path d="M153 42.5H147.333V47.8125H153V42.5Z" fill="#EED033"/>
<path d="M158.667 42.5H153V47.8125H158.667V42.5Z" fill="#EFD133"/>
<path d="M164.334 42.5H158.667V47.8125H164.334V42.5Z" fill="#EFD233"/>
<path d="M170 42.5H164.333V47.8125H170V42.5Z" fill="#F0D333"/>
<path d="M175.667 42.5H170V47.8125H175.667V42.5Z" fill="#F1D333"/>
<path d="M181.334 42.5H175.667V47.8125H181.334V42.5Z" fill="#F2D433"/>
<path d="M187 42.5H181.333V47.8125H187V42.5Z" fill="#F3D533"/>
<path d="M90.6667 47.8125H85V53.125H90.6667V47.8125Z" fill="#E1C633"/>
<path d="M96.3337 47.8125H90.667V53.125H96.3337V47.8125Z" fill="#E2C733"/>
<path d="M102 47.8125H96.333V53.125H102V47.8125Z" fill="#E3C733"/>
<path d="M107.667 47.8125H102V53.125H107.667V47.8125Z" fill="#E3C833"/>
<path d="M113.334 47.8125H107.667V53.125H113.334V47.8125Z" fill="#E4C933"/>
<path d="M119 47.8125H113.333V53.125H119V47.8125Z" fill="#E6CA33"/>
<path d="M124.667 47.8125H119V53.125H124.667V47.8125Z" fill="#E7CB33"/>
<path d="M130.334 47.8125H124.667V53.125H130.334V47.8125Z" fill="#E7CB33"/>
<path d="M136 47.8125H130.333V53.125H136V47.8125Z" fill="#E8CB33"/>
<path d="M141.667 47.8125H136V53.125H141.667V47.8125Z" fill="#E9CC33"/>
<path d="M147.334 47.8125H141.667V53.125H147.334V47.8125Z" fill="#EACD33"/>
<path d="M153 47.8125H147.333V53.125H153V47.8125Z" fill="#EBCE33"/>
<path d="M158.667 47.8125H153V53.125H158.667V47.8125Z" fill="#ECCF33"/>
<path d="M164.334 47.8125H158.667V53.125H164.334V47.8125Z" fill="#EDCF33"/>
<path d="M170 47.8125H164.333V53.125H170V47.8125Z" fill="#EED033"/>
<path d="M175.667 47.8125H170V53.125H175.667V47.8125Z" fill="#EFD133"/>
<path d="M181.334 47.8125H175.667V53.125H181.334V47.8125Z" fill="#EFD233"/>
<path d="M187 47.8125H181.333V53.125H187V47.8125Z" fill="#F0D333"/>
<path d="M84.9997 53.125H79.333V58.4375H84.9997V53.125Z" fill="#DDC333"/>
<path d="M90.6667 53.125H85V58.4375H90.6667V53.125Z" fill="#DFC333"/>
<path d="M96.3337 53.125H90.667V58.4375H96.3337V53.125Z" fill="#DFC433"/>
<path d="M102 53.125H96.333V58.4375H102V53.125Z" fill="#E0C533"/>
<path d="M107.667 53.125H102V58.4375H107.667V53.125Z" fill="#E1C633"/>
<path d="M113.334 53.125H107.667V58.4375H113.334V53.125Z" fill="#E2C733"/>
<path d="M119 53.125H113.333V58.4375H119V53.125Z" fill="#E3C733"/>
<path d="M124.667 53.125H119V58.4375H124.667V53.125Z" fill="#E3C833"/>
<path d="M130.334 53.125H124.667V58.4375H130.334V53.125Z" fill="#E4C933"/>
<path d="M136 53.125H130.333V58.4375H136V53.125Z" fill="#E6CA33"/>
<path d="M141.667 53.125H136V58.4375H141.667V53.125Z" fill="#E7CB33"/>
<path d="M147.334 53.125H141.667V58.4375H147.334V53.125Z" fill="#E7CB33"/>
<path d="M153 53.125H147.333V58.4375H153V53.125Z" fill="#E8CB33"/>
<path d="M158.667 53.125H153V58.4375H158.667V53.125Z" fill="#E9CC33"/>
<path d="M164.334 53.125H158.667V58.4375H164.334V53.125Z" fill="#EACD33"/>
<path d="M170 53.125H164.333V58.4375H170V53.125Z" fill="#EBCE33"/>
<path d="M175.667 53.125H170V58.4375H175.667V53.125Z" fill="#EBCF33"/>
<path d="M181.334 53.125H175.667V58.4375H181.334V53.125Z" fill="#EDCF33"/>
<path d="M187 53.125H181.333V58.4375H187V53.125Z" fill="#EED033"/>
<path d="M192.667 53.125H187V58.4375H192.667V53.125Z" fill="#EFD133"/>
<path d="M84.9997 58.4375H79.333V63.75H84.9997V58.4375Z" fill="#DBC033"/>
<path d="M90.6667 58.4375H85V63.75H90.6667V58.4375Z" fill="#DBC133"/>
<path d="M96.3337 58.4375H90.667V63.75H96.3337V58.4375Z" fill="#DCC233"/>
<path d="M102 58.4375H96.333V63.75H102V58.4375Z" fill="#DDC333"/>
<path d="M107.667 58.4375H102V63.75H107.667V58.4375Z" fill="#DEC333"/>
<path d="M113.334 58.4375H107.667V63.75H113.334V58.4375Z" fill="#DFC433"/>
<path d="M119 58.4375H113.333V63.75H119V58.4375Z" fill="#E0C533"/>
<path d="M124.667 58.4375H119V63.75H124.667V58.4375Z" fill="#E1C633"/>
<path d="M130.334 58.4375H124.667V63.75H130.334V58.4375Z" fill="#E2C733"/>
<path d="M136 58.4375H130.333V63.75H136V58.4375Z" fill="#E3C733"/>
<path d="M141.667 58.4375H136V63.75H141.667V58.4375Z" fill="#E3C833"/>
<path d="M147.334 58.4375H141.667V63.75H147.334V58.4375Z" fill="#E4C933"/>
<path d="M153 58.4375H147.333V63.75H153V58.4375Z" fill="#E6CA33"/>
<path d="M158.667 58.4375H153V63.75H158.667V58.4375Z" fill="#E7CA33"/>
<path d="M164.334 58.4375H158.667V63.75H164.334V58.4375Z" fill="#E7CB33"/>
<path d="M170 58.4375H164.333V63.75H170V58.4375Z" fill="#E8CB33"/>
<path d="M175.667 58.4375H170V63.75H175.667V58.4375Z" fill="#E9CC33"/>
<path d="M181.334 58.4375H175.667V63.75H181.334V58.4375Z" fill="#EACD33"/>
<path d="M187 58.4375H181.333V63.75H187V58.4375Z" fill="#EBCE33"/>
<path d="M192.667 58.4375H187V63.75H192.667V58.4375Z" fill="#EBCF33"/>
<path d="M84.9997 63.75H79.333V69.0625H84.9997V63.75Z" fill="#D8BE33"/>
<path d="M90.6667 63.75H85V69.0625H90.6667V63.75Z" fill="#D9BF33"/>
<path d="M96.3337 63.75H90.667V69.0625H96.3337V63.75Z" fill="#DABF33"/>
<path d="M102 63.75H96.333V69.0625H102V63.75Z" fill="#DBC033"/>
<path d="M107.667 63.75H102V69.0625H107.667V63.75Z" fill="#DBC133"/>
<path d="M113.334 63.75H107.667V69.0625H113.334V63.75Z" fill="#DCC233"/>
<path d="M119 63.75H113.333V69.0625H119V63.75Z" fill="#DDC333"/>
<path d="M124.667 63.75H119V69.0625H124.667V63.75Z" fill="#DEC333"/>
<path d="M130.334 63.75H124.667V69.0625H130.334V63.75Z" fill="#DFC433"/>
<path d="M136 63.75H130.333V69.0625H136V63.75Z" fill="#E0C533"/>
<path d="M141.667 63.75H136V69.0625H141.667V63.75Z" fill="#E1C633"/>
<path d="M147.334 63.75H141.667V69.0625H147.334V63.75Z" fill="#E2C733"/>
<path d="M153 63.75H147.333V69.0625H153V63.75Z" fill="#E3C733"/>
<path d="M158.667 63.75H153V69.0625H158.667V63.75Z" fill="#E3C833"/>
<path d="M164.334 63.75H158.667V69.0625H164.334V63.75Z" fill="#E4C933"/>
<path d="M170 63.75H164.333V69.0625H170V63.75Z" fill="#E5C933"/>
<path d="M175.667 63.75H170V69.0625H175.667V63.75Z" fill="#E7CA33"/>
<path d="M181.334 63.75H175.667V69.0625H181.334V63.75Z" fill="#E7CB33"/>
<path d="M187 63.75H181.333V69.0625H187V63.75Z" fill="#E8CB33"/>
<path d="M192.667 63.75H187V69.0625H192.667V63.75Z" fill="#E9CC33"/>
<path d="M84.9997 69.0625H79.333V74.375H84.9997V69.0625Z" fill="#D5BB33"/>
<path d="M90.6667 69.0625H85V74.375H90.6667V69.0625Z" fill="#D6BC33"/>
<path d="M96.3337 69.0625H90.667V74.375H96.3337V69.0625Z" fill="#D7BD33"/>
<path d="M102 69.0625H96.333V74.375H102V69.0625Z" fill="#D7BE33"/>
<path d="M107.667 69.0625H102V74.375H107.667V69.0625Z" fill="#D9BF33"/>
<path d="M113.334 69.0625H107.667V74.375H113.334V69.0625Z" fill="#DABF33"/>
<path d="M119 69.0625H113.333V74.375H119V69.0625Z" fill="#DBC033"/>
<path d="M124.667 69.0625H119V74.375H124.667V69.0625Z" fill="#DBC133"/>
<path d="M130.334 69.0625H124.667V74.375H130.334V69.0625Z" fill="#DCC233"/>
<path d="M136 69.0625H130.333V74.375H136V69.0625Z" fill="#DDC333"/>
<path d="M141.667 69.0625H136V74.375H141.667V69.0625Z" fill="#DEC333"/>
<path d="M147.334 69.0625H141.667V74.375H147.334V69.0625Z" fill="#DFC433"/>
<path d="M153 69.0625H147.333V74.375H153V69.0625Z" fill="#E0C533"/>
<path d="M158.667 69.0625H153V74.375H158.667V69.0625Z" fill="#E1C633"/>
<path d="M164.334 69.0625H158.667V74.375H164.334V69.0625Z" fill="#E2C733"/>
<path d="M170 69.0625H164.333V74.375H170V69.0625Z" fill="#E3C733"/>
<path d="M175.667 69.0625H170V74.375H175.667V69.0625Z" fill="#E3C833"/>
<path d="M181.334 69.0625H175.667V74.375H181.334V69.0625Z" fill="#E4C833"/>
<path d="M187 69.0625H181.333V74.375H187V69.0625Z" fill="#E5C933"/>
<path d="M192.667 69.0625H187V74.375H192.667V69.0625Z" fill="#E7CA33"/>
<path d="M79.3337 74.375H73.667V79.6875H79.3337V74.375Z" fill="#D2B833"/>
<path d="M84.9997 74.375H79.333V79.6875H84.9997V74.375Z" fill="#D3B933"/>
<path d="M90.6667 74.375H85V79.6875H90.6667V74.375Z" fill="#D3BA33"/>
<path d="M96.3337 74.375H90.667V79.6875H96.3337V74.375Z" fill="#D4BB33"/>
<path d="M102 74.375H96.333V79.6875H102V74.375Z" fill="#D5BB33"/>
<path d="M107.667 74.375H102V79.6875H107.667V74.375Z" fill="#D6BC33"/>
<path d="M113.334 74.375H107.667V79.6875H113.334V74.375Z" fill="#D7BD33"/>
<path d="M119 74.375H113.333V79.6875H119V74.375Z" fill="#D7BE33"/>
<path d="M124.667 74.375H119V79.6875H124.667V74.375Z" fill="#D9BF33"/>
<path d="M130.334 74.375H124.667V79.6875H130.334V74.375Z" fill="#DABF33"/>
<path d="M136 74.375H130.333V79.6875H136V74.375Z" fill="#DBC033"/>
<path d="M141.667 74.375H136V79.6875H141.667V74.375Z" fill="#DBC133"/>
<path d="M147.334 74.375H141.667V79.6875H147.334V74.375Z" fill="#DCC233"/>
<path d="M153 74.375H147.333V79.6875H153V74.375Z" fill="#DDC333"/>
<path d="M158.667 74.375H153V79.6875H158.667V74.375Z" fill="#DEC333"/>
<path d="M164.334 74.375H158.667V79.6875H164.334V74.375Z" fill="#DFC433"/>
<path d="M170 74.375H164.333V79.6875H170V74.375Z" fill="#E0C533"/>
<path d="M175.667 74.375H170V79.6875H175.667V74.375Z" fill="#E1C633"/>
<path d="M181.334 74.375H175.667V79.6875H181.334V74.375Z" fill="#E2C733"/>
<path d="M187 74.375H181.333V79.6875H187V74.375Z" fill="#E3C733"/>
<path d="M192.667 74.375H187V79.6875H192.667V74.375Z" fill="#E3C733"/>
<path d="M198.334 74.375H192.667V79.6875H198.334V74.375Z" fill="#E4C833"/>
<path d="M79.3337 79.6875H73.667V85H79.3337V79.6875Z" fill="#CFB733"/>
<path d="M84.9997 79.6875H79.333V85H84.9997V79.6875Z" fill="#CFB733"/>
<path d="M90.6667 79.6875H85V85H90.6667V79.6875Z" fill="#D0B733"/>
<path d="M96.3337 79.6875H90.667V85H96.3337V79.6875Z" fill="#D1B833"/>
<path d="M102 79.6875H96.333V85H102V79.6875Z" fill="#D3B933"/>
<path d="M107.667 79.6875H102V85H107.667V79.6875Z" fill="#D3BA33"/>
<path d="M113.334 79.6875H107.667V85H113.334V79.6875Z" fill="#D4BB33"/>
<path d="M119 79.6875H113.333V85H119V79.6875Z" fill="#D5BB33"/>
<path d="M124.667 79.6875H119V85H124.667V79.6875Z" fill="#D6BC33"/>
<path d="M130.334 79.6875H124.667V85H130.334V79.6875Z" fill="#D7BD33"/>
<path d="M136 79.6875H130.333V85H136V79.6875Z" fill="#D7BE33"/>
<path d="M141.667 79.6875H136V85H141.667V79.6875Z" fill="#D9BF33"/>
<path d="M147.334 79.6875H141.667V85H147.334V79.6875Z" fill="#DABF33"/>
<path d="M153 79.6875H147.333V85H153V79.6875Z" fill="#DBC033"/>
<path d="M158.667 79.6875H153V85H158.667V79.6875Z" fill="#DBC133"/>
<path d="M164.334 79.6875H158.667V85H164.334V79.6875Z" fill="#DCC233"/>
<path d="M170 79.6875H164.333V85H170V79.6875Z" fill="#DDC333"/>
<path d="M175.667 79.6875H170V85H175.667V79.6875Z" fill="#DEC333"/>
<path d="M181.334 79.6875H175.667V85H181.334V79.6875Z" fill="#DFC433"/>
<path d="M187 79.6875H181.333V85H187V79.6875Z" fill="#E0C533"/>
<path d="M192.667 79.6875H187V85H192.667V79.6875Z" fill="#E1C633"/>
<path d="M198.334 79.6875H192.667V85H198.334V79.6875Z" fill="#E2C733"/>
<path d="M79.3337 85H73.667V90.3125H79.3337V85Z" fill="#CCB433"/>
<path d="M84.9997 85H79.333V90.3125H84.9997V85Z" fill="#CDB533"/>
<path d="M90.6667 85H85V90.3125H90.6667V85Z" fill="#CEB633"/>
<path d="M96.3337 85H90.667V90.3125H96.3337V85Z" fill="#CFB733"/>
<path d="M102 85H96.333V90.3125H102V85Z" fill="#CFB733"/>
<path d="M107.667 85H102V90.3125H107.667V85Z" fill="#D0B733"/>
<path d="M113.334 85H107.667V90.3125H113.334V85Z" fill="#D1B833"/>
<path d="M119 85H113.333V90.3125H119V85Z" fill="#D3B933"/>
<path d="M124.667 85H119V90.3125H124.667V85Z" fill="#D3BA33"/>
<path d="M130.334 85H124.667V90.3125H130.334V85Z" fill="#D4BB33"/>
<path d="M136 85H130.333V90.3125H136V85Z" fill="#D5BB33"/>
<path d="M141.667 85H136V90.3125H141.667V85Z" fill="#D6BC33"/>
<path d="M147.334 85H141.667V90.3125H147.334V85Z" fill="#D7BD33"/>
<path d="M153 85H147.333V90.3125H153V85Z" fill="#D7BE33"/>
<path d="M158.667 85H153V90.3125H158.667V85Z" fill="#D8BF33"/>
<path d="M164.334 85H158.667V90.3125H164.334V85Z" fill="#DABF33"/>
<path d="M170 85H164.333V90.3125H170V85Z" fill="#DBC033"/>
<path d="M175.667 85H170V90.3125H175.667V85Z" fill="#DBC133"/>
<path d="M181.334 85H175.667V90.3125H181.334V85Z" fill="#DCC233"/>
<path d="M187 85H181.333V90.3125H187V85Z" fill="#DDC333"/>
<path d="M192.667 85H187V90.3125H192.667V85Z" fill="#DEC333"/>
<path d="M198.334 85H192.667V90.3125H198.334V85Z" fill="#DFC433"/>
<path d="M73.6667 90.3125H68V95.625H73.6667V90.3125Z" fill="#C8B133"/>
<path d="M79.3337 90.3125H73.667V95.625H79.3337V90.3125Z" fill="#C9B233"/>
<path d="M84.9997 90.3125H79.333V95.625H84.9997V90.3125Z" fill="#CAB333"/>
<path d="M90.6667 90.3125H85V95.625H90.6667V90.3125Z" fill="#CBB333"/>
<path d="M96.3337 90.3125H90.667V95.625H96.3337V90.3125Z" fill="#CCB433"/>
<path d="M102 90.3125H96.333V95.625H102V90.3125Z" fill="#CDB533"/>
<path d="M107.667 90.3125H102V95.625H107.667V90.3125Z" fill="#CEB633"/>
<path d="M113.334 90.3125H107.667V95.625H113.334V90.3125Z" fill="#CFB633"/>
<path d="M119 90.3125H113.333V95.625H119V90.3125Z" fill="#CFB733"/>
<path d="M124.667 90.3125H119V95.625H124.667V90.3125Z" fill="#D0B733"/>
<path d="M130.334 90.3125H124.667V95.625H130.334V90.3125Z" fill="#D1B833"/>
<path d="M136 90.3125H130.333V95.625H136V90.3125Z" fill="#D3B933"/>
<path d="M141.667 90.3125H136V95.625H141.667V90.3125Z" fill="#D3BA33"/>
<path d="M147.334 90.3125H141.667V95.625H147.334V90.3125Z" fill="#D4BB33"/>
<path d="M153 90.3125H147.333V95.625H153V90.3125Z" fill="#D5BB33"/>
<path d="M158.667 90.3125H153V95.625H158.667V90.3125Z" fill="#D6BC33"/>
<path d="M164.334 90.3125H158.667V95.625H164.334V90.3125Z" fill="#D7BD33"/>
<path d="M170 90.3125H164.333V95.625H170V90.3125Z" fill="#D7BE33"/>
<path d="M175.667 90.3125H170V95.625H175.667V90.3125Z" fill="#D8BF33"/>
<path d="M181.334 90.3125H175.667V95.625H181.334V90.3125Z" fill="#DABF33"/>
<path d="M187 90.3125H181.333V95.625H187V90.3125Z" fill="#DBC033"/>
<path d="M192.667 90.3125H187V95.625H192.667V90.3125Z" fill="#DBC133"/>
<path d="M198.334 90.3125H192.667V95.625H198.334V90.3125Z" fill="#DCC233"/>
<path d="M204 90.3125H198.333V95.625H204V90.3125Z" fill="#DDC333"/>
<path d="M73.6667 95.625H68V100.938H73.6667V95.625Z" fill="#C6AF33"/>
<path d="M79.3337 95.625H73.667V100.938H79.3337V95.625Z" fill="#C7AF33"/>
<path d="M84.9997 95.625H79.333V100.938H84.9997V95.625Z" fill="#C7B033"/>
<path d="M90.6667 95.625H85V100.938H90.6667V95.625Z" fill="#C8B133"/>
<path d="M96.3337 95.625H90.667V100.938H96.3337V95.625Z" fill="#C9B233"/>
<path d="M102 95.625H96.333V100.938H102V95.625Z" fill="#CAB333"/>
<path d="M107.667 95.625H102V100.938H107.667V95.625Z" fill="#CBB333"/>
<path d="M113.334 95.625H107.667V100.938H113.334V95.625Z" fill="#CCB433"/>
<path d="M119 95.625H113.333V100.938H119V95.625Z" fill="#CDB533"/>
<path d="M124.667 95.625H119V100.938H124.667V95.625Z" fill="#CEB533"/>
<path d="M130.334 95.625H124.667V100.938H130.334V95.625Z" fill="#CFB633"/>
<path d="M136 95.625H130.333V100.938H136V95.625Z" fill="#CFB733"/>
<path d="M141.667 95.625H136V100.938H141.667V95.625Z" fill="#D0B733"/>
<path d="M147.334 95.625H141.667V100.938H147.334V95.625Z" fill="#D1B833"/>
<path d="M153 95.625H147.333V100.938H153V95.625Z" fill="#D2B933"/>
<path d="M158.667 95.625H153V100.938H158.667V95.625Z" fill="#D3BA33"/>
<path d="M164.334 95.625H158.667V100.938H164.334V95.625Z" fill="#D4BB33"/>
<path d="M170 95.625H164.333V100.938H170V95.625Z" fill="#D5BB33"/>
<path d="M175.667 95.625H170V100.938H175.667V95.625Z" fill="#D6BC33"/>
<path d="M181.334 95.625H175.667V100.938H181.334V95.625Z" fill="#D7BD33"/>
<path d="M187 95.625H181.333V100.938H187V95.625Z" fill="#D7BE33"/>
<path d="M192.667 95.625H187V100.938H192.667V95.625Z" fill="#D8BF33"/>
<path d="M198.334 95.625H192.667V100.938H198.334V95.625Z" fill="#D9BF33"/>
<path d="M204 95.625H198.333V100.938H204V95.625Z" fill="#DBC033"/>
<path d="M73.6667 100.938H68V106.25H73.6667V100.938Z" fill="#C3AC33"/>
<path d="M79.3337 100.938H73.667V106.25H79.3337V100.938Z" fill="#C3AD33"/>
<path d="M84.9997 100.938H79.333V106.25H84.9997V100.938Z" fill="#C4AE33"/>
<path d="M90.6667 100.938H85V106.25H90.6667V100.938Z" fill="#C6AF33"/>
<path d="M96.3337 100.938H90.667V106.25H96.3337V100.938Z" fill="#C7AF33"/>
<path d="M102 100.938H96.333V106.25H102V100.938Z" fill="#C7B033"/>
<path d="M107.667 100.938H102V106.25H107.667V100.938Z" fill="#C8B133"/>
<path d="M113.334 100.938H107.667V106.25H113.334V100.938Z" fill="#C9B233"/>
<path d="M119 100.938H113.333V106.25H119V100.938Z" fill="#CAB333"/>
<path d="M124.667 100.938H119V106.25H124.667V100.938Z" fill="#CBB333"/>
<path d="M130.334 100.938H124.667V106.25H130.334V100.938Z" fill="#CCB433"/>
<path d="M136 100.938H130.333V106.25H136V100.938Z" fill="#CDB433"/>
<path d="M141.667 100.938H136V106.25H141.667V100.938Z" fill="#CEB533"/>
<path d="M147.334 100.938H141.667V106.25H147.334V100.938Z" fill="#CFB633"/>
<path d="M153 100.938H147.333V106.25H153V100.938Z" fill="#CFB733"/>
<path d="M158.667 100.938H153V106.25H158.667V100.938Z" fill="#D0B733"/>
<path d="M164.334 100.938H158.667V106.25H164.334V100.938Z" fill="#D1B833"/>
<path d="M170 100.938H164.333V106.25H170V100.938Z" fill="#D2B933"/>
<path d="M175.667 100.938H170V106.25H175.667V100.938Z" fill="#D3BA33"/>
<path d="M181.334 100.938H175.667V106.25H181.334V100.938Z" fill="#D4BB33"/>
<path d="M187 100.938H181.333V106.25H187V100.938Z" fill="#D5BB33"/>
<path d="M192.667 100.938H187V106.25H192.667V100.938Z" fill="#D6BC33"/>
<path d="M198.334 100.938H192.667V106.25H198.334V100.938Z" fill="#D7BD33"/>
<path d="M204 100.938H198.333V106.25H204V100.938Z" fill="#D7BE33"/>
<path d="M73.6667 106.25H68V111.562H73.6667V106.25Z" fill="#C0AA33"/>
<path d="M79.3337 106.25H73.667V111.562H79.3337V106.25Z" fill="#C1AB33"/>
<path d="M84.9997 106.25H79.333V111.562H84.9997V106.25Z" fill="#C2AB33"/>
<path d="M90.6667 106.25H85V111.562H90.6667V106.25Z" fill="#C3AC33"/>
<path d="M96.3337 106.25H90.667V111.562H96.3337V106.25Z" fill="#C3AD33"/>
<path d="M102 106.25H96.333V111.562H102V106.25Z" fill="#C4AE33"/>
<path d="M107.667 106.25H102V111.562H107.667V106.25Z" fill="#C6AF33"/>
<path d="M113.334 106.25H107.667V111.562H113.334V106.25Z" fill="#C7AF33"/>
<path d="M119 106.25H113.333V111.562H119V106.25Z" fill="#C7B033"/>
<path d="M124.667 106.25H119V111.562H124.667V106.25Z" fill="#C8B133"/>
<path d="M130.334 106.25H124.667V111.562H130.334V106.25Z" fill="#C9B233"/>
<path d="M136 106.25H130.333V111.562H136V106.25Z" fill="#CAB333"/>
<path d="M141.667 106.25H136V111.562H141.667V106.25Z" fill="#CBB333"/>
<path d="M147.334 106.25H141.667V111.562H147.334V106.25Z" fill="#CBB433"/>
<path d="M153 106.25H147.333V111.562H153V106.25Z" fill="#CDB433"/>
<path d="M158.667 106.25H153V111.562H158.667V106.25Z" fill="#CEB533"/>
<path d="M164.334 106.25H158.667V111.562H164.334V106.25Z" fill="#CFB633"/>
<path d="M170 106.25H164.333V111.562H170V106.25Z" fill="#CFB733"/>
<path d="M175.667 106.25H170V111.562H175.667V106.25Z" fill="#D0B733"/>
<path d="M181.334 106.25H175.667V111.562H181.334V106.25Z" fill="#D1B833"/>
<path d="M187 106.25H181.333V111.562H187V106.25Z" fill="#D2B933"/>
<path d="M192.667 106.25H187V111.562H192.667V106.25Z" fill="#D3BA33"/>
<path d="M198.334 106.25H192.667V111.562H198.334V106.25Z" fill="#D4BB33"/>
<path d="M204 106.25H198.333V111.562H204V106.25Z" fill="#D5BB33"/>
<path d="M67.9997 111.562H62.333V116.875H67.9997V111.562Z" fill="#BCA733"/>
<path d="M73.6667 111.562H68V116.875H73.6667V111.562Z" fill="#BDA733"/>
<path d="M79.3337 111.562H73.667V116.875H79.3337V111.562Z" fill="#BEA833"/>
<path d="M84.9997 111.562H79.333V116.875H84.9997V111.562Z" fill="#BFA933"/>
<path d="M90.6667 111.562H85V116.875H90.6667V111.562Z" fill="#C0AA33"/>
<path d="M96.3337 111.562H90.667V116.875H96.3337V111.562Z" fill="#C1AB33"/>
<path d="M102 111.562H96.333V116.875H102V111.562Z" fill="#C2AB33"/>
<path d="M107.667 111.562H102V116.875H107.667V111.562Z" fill="#C3AC33"/>
<path d="M113.334 111.562H107.667V116.875H113.334V111.562Z" fill="#C3AD33"/>
<path d="M119 111.562H113.333V116.875H119V111.562Z" fill="#C4AE33"/>
<path d="M124.667 111.562H119V116.875H124.667V111.562Z" fill="#C6AF33"/>
<path d="M130.334 111.562H124.667V116.875H130.334V111.562Z" fill="#C7AF33"/>
<path d="M136 111.562H130.333V116.875H136V111.562Z" fill="#C7B033"/>
<path d="M141.667 111.562H136V116.875H141.667V111.562Z" fill="#C8B133"/>
<path d="M147.334 111.562H141.667V116.875H147.334V111.562Z" fill="#C9B233"/>
<path d="M153 111.562H147.333V116.875H153V111.562Z" fill="#CAB333"/>
<path d="M158.667 111.562H153V116.875H158.667V111.562Z" fill="#CBB333"/>
<path d="M164.334 111.562H158.667V116.875H164.334V111.562Z" fill="#CBB333"/>
<path d="M170 111.562H164.333V116.875H170V111.562Z" fill="#CDB433"/>
<path d="M175.667 111.562H170V116.875H175.667V111.562Z" fill="#CEB533"/>
<path d="M181.334 111.562H175.667V116.875H181.334V111.562Z" fill="#CFB633"/>
<path d="M187 111.562H181.333V116.875H187V111.562Z" fill="#CFB733"/>
<path d="M192.667 111.562H187V116.875H192.667V111.562Z" fill="#D0B733"/>
<path d="M198.334 111.562H192.667V116.875H198.334V111.562Z" fill="#D1B833"/>
<path d="M204 111.562H198.333V116.875H204V111.562Z" fill="#D2B933"/>
<path d="M209.667 111.562H204V116.875H209.667V111.562Z" fill="#D3BA33"/>
<path d="M67.9997 116.875H62.333V122.188H67.9997V116.875Z" fill="#BAA433"/>
<path d="M73.6667 116.875H68V122.188H73.6667V116.875Z" fill="#BBA533"/>
<path d="M79.3337 116.875H73.667V122.188H79.3337V116.875Z" fill="#BBA633"/>
<path d="M84.9997 116.875H79.333V122.188H84.9997V116.875Z" fill="#BCA733"/>
<path d="M90.6667 116.875H85V122.188H90.6667V116.875Z" fill="#BDA733"/>
<path d="M96.3337 116.875H90.667V122.188H96.3337V116.875Z" fill="#BEA833"/>
<path d="M102 116.875H96.333V122.188H102V116.875Z" fill="#BFA933"/>
<path d="M107.667 116.875H102V122.188H107.667V116.875Z" fill="#C0AA33"/>
<path d="M113.334 116.875H107.667V122.188H113.334V116.875Z" fill="#C1AB33"/>
<path d="M119 116.875H113.333V122.188H119V116.875Z" fill="#C2AB33"/>
<path d="M124.667 116.875H119V122.188H124.667V116.875Z" fill="#C3AC33"/>
<path d="M130.334 116.875H124.667V122.188H130.334V116.875Z" fill="#C3AD33"/>
<path d="M136 116.875H130.333V122.188H136V116.875Z" fill="#C4AE33"/>
<path d="M141.667 116.875H136V122.188H141.667V116.875Z" fill="#C5AF33"/>
<path d="M147.334 116.875H141.667V122.188H147.334V116.875Z" fill="#C7AF33"/>
<path d="M153 116.875H147.333V122.188H153V116.875Z" fill="#C7B033"/>
<path d="M158.667 116.875H153V122.188H158.667V116.875Z" fill="#C8B133"/>
<path d="M164.334 116.875H158.667V122.188H164.334V116.875Z" fill="#C9B233"/>
<path d="M170 116.875H164.333V122.188H170V116.875Z" fill="#CAB333"/>
<path d="M175.667 116.875H170V122.188H175.667V116.875Z" fill="#CBB333"/>
<path d="M181.334 116.875H175.667V122.188H181.334V116.875Z" fill="#CBB333"/>
<path d="M187 116.875H181.333V122.188H187V116.875Z" fill="#CCB433"/>
<path d="M192.667 116.875H187V122.188H192.667V116.875Z" fill="#CEB533"/>
<path d="M198.334 116.875H192.667V122.188H198.334V116.875Z" fill="#CFB633"/>
<path d="M204 116.875H198.333V122.188H204V116.875Z" fill="#CFB733"/>
<path d="M209.667 116.875H204V122.188H209.667V116.875Z" fill="#D0B733"/>
<path d="M67.9997 122.188H62.333V127.5H67.9997V122.188Z" fill="#B7A233"/>
<path d="M73.6667 122.188H68V127.5H73.6667V122.188Z" fill="#B7A333"/>
<path d="M79.3337 122.188H73.667V127.5H79.3337V122.188Z" fill="#B9A333"/>
<path d="M84.9997 122.188H79.333V127.5H84.9997V122.188Z" fill="#BAA433"/>
<path d="M90.6667 122.188H85V127.5H90.6667V122.188Z" fill="#BBA533"/>
<path d="M96.3337 122.188H90.667V127.5H96.3337V122.188Z" fill="#BBA633"/>
<path d="M102 122.188H96.333V127.5H102V122.188Z" fill="#BCA733"/>
<path d="M107.667 122.188H102V127.5H107.667V122.188Z" fill="#BDA733"/>
<path d="M113.334 122.188H107.667V127.5H113.334V122.188Z" fill="#BEA833"/>
<path d="M119 122.188H113.333V127.5H119V122.188Z" fill="#BFA933"/>
<path d="M124.667 122.188H119V127.5H124.667V122.188Z" fill="#C0AA33"/>
<path d="M130.334 122.188H124.667V127.5H130.334V122.188Z" fill="#C1AB33"/>
<path d="M136 122.188H130.333V127.5H136V122.188Z" fill="#C2AB33"/>
<path d="M141.667 122.188H136V127.5H141.667V122.188Z" fill="#C3AC33"/>
<path d="M147.334 122.188H141.667V127.5H147.334V122.188Z" fill="#C3AD33"/>
<path d="M153 122.188H147.333V127.5H153V122.188Z" fill="#C4AE33"/>
<path d="M158.667 122.188H153V127.5H158.667V122.188Z" fill="#C5AF33"/>
<path d="M164.334 122.188H158.667V127.5H164.334V122.188Z" fill="#C7AF33"/>
<path d="M170 122.188H164.333V127.5H170V122.188Z" fill="#C7B033"/>
<path d="M175.667 122.188H170V127.5H175.667V122.188Z" fill="#C8B133"/>
<path d="M181.334 122.188H175.667V127.5H181.334V122.188Z" fill="#C9B233"/>
<path d="M187 122.188H181.333V127.5H187V122.188Z" fill="#CAB233"/>
<path d="M192.667 122.188H187V127.5H192.667V122.188Z" fill="#CBB333"/>
<path d="M198.334 122.188H192.667V127.5H198.334V122.188Z" fill="#CBB333"/>
<path d="M204 122.188H198.333V127.5H204V122.188Z" fill="#CCB433"/>
<path d="M209.667 122.188H204V127.5H209.667V122.188Z" fill="#CEB533"/>
<path d="M67.9997 127.5H62.333V132.812H67.9997V127.5Z" fill="#B4A033"/>
<path d="M73.6667 127.5H68V132.812H73.6667V127.5Z" fill="#B5A133"/>
<path d="M79.3337 127.5H73.667V132.812H79.3337V127.5Z" fill="#B6A233"/>
<path d="M84.9997 127.5H79.333V132.812H84.9997V127.5Z" fill="#B7A233"/>
<path d="M90.6667 127.5H85V132.812H90.6667V127.5Z" fill="#B7A333"/>
<path d="M96.3337 127.5H90.667V132.812H96.3337V127.5Z" fill="#B9A333"/>
<path d="M102 127.5H96.333V132.812H102V127.5Z" fill="#BAA433"/>
<path d="M107.667 127.5H102V132.812H107.667V127.5Z" fill="#BBA533"/>
<path d="M113.334 127.5H107.667V132.812H113.334V127.5Z" fill="#BBA633"/>
<path d="M119 127.5H113.333V132.812H119V127.5Z" fill="#BCA733"/>
<path d="M124.667 127.5H119V132.812H124.667V127.5Z" fill="#BDA733"/>
<path d="M130.334 127.5H124.667V132.812H130.334V127.5Z" fill="#BEA833"/>
<path d="M136 127.5H130.333V132.812H136V127.5Z" fill="#BFA933"/>
<path d="M141.667 127.5H136V132.812H141.667V127.5Z" fill="#C0AA33"/>
<path d="M147.334 127.5H141.667V132.812H147.334V127.5Z" fill="#C1AB33"/>
<path d="M153 127.5H147.333V132.812H153V127.5Z" fill="#C2AB33"/>
<path d="M158.667 127.5H153V132.812H158.667V127.5Z" fill="#C3AC33"/>
<path d="M164.334 127.5H158.667V132.812H164.334V127.5Z" fill="#C3AD33"/>
<path d="M170 127.5H164.333V132.812H170V127.5Z" fill="#C4AE33"/>
<path d="M175.667 127.5H170V132.812H175.667V127.5Z" fill="#C5AF33"/>
<path d="M181.334 127.5H175.667V132.812H181.334V127.5Z" fill="#C6AF33"/>
<path d="M187 127.5H181.333V132.812H187V127.5Z" fill="#C7B033"/>
<path d="M192.667 127.5H187V132.812H192.667V127.5Z" fill="#C8B133"/>
<path d="M198.334 127.5H192.667V132.812H198.334V127.5Z" fill="#C9B133"/>
<path d="M204 127.5H198.333V132.812H204V127.5Z" fill="#CAB233"/>
<path d="M209.667 127.5H204V132.812H209.667V127.5Z" fill="#CBB333"/>
<path d="M62.3337 132.812H56.667V138.125H62.3337V132.812Z" fill="#B09D33"/>
<path d="M67.9997 132.812H62.333V138.125H67.9997V132.812Z" fill="#B19E33"/>
<path d="M73.6667 132.812H68V138.125H73.6667V132.812Z" fill="#B39F33"/>
<path d="M79.3337 132.812H73.667V138.125H79.3337V132.812Z" fill="#B39F33"/>
<path d="M84.9997 132.812H79.333V138.125H84.9997V132.812Z" fill="#B4A033"/>
<path d="M90.6667 132.812H85V138.125H90.6667V132.812Z" fill="#B5A133"/>
<path d="M96.3337 132.812H90.667V138.125H96.3337V132.812Z" fill="#B6A133"/>
<path d="M102 132.812H96.333V138.125H102V132.812Z" fill="#B7A233"/>
<path d="M107.667 132.812H102V138.125H107.667V132.812Z" fill="#B7A333"/>
<path d="M113.334 132.812H107.667V138.125H113.334V132.812Z" fill="#B9A333"/>
<path d="M119 132.812H113.333V138.125H119V132.812Z" fill="#BAA433"/>
<path d="M124.667 132.812H119V138.125H124.667V132.812Z" fill="#BBA533"/>
<path d="M130.334 132.812H124.667V138.125H130.334V132.812Z" fill="#BBA633"/>
<path d="M136 132.812H130.333V138.125H136V132.812Z" fill="#BCA733"/>
<path d="M141.667 132.812H136V138.125H141.667V132.812Z" fill="#BDA733"/>
<path d="M147.334 132.812H141.667V138.125H147.334V132.812Z" fill="#BEA833"/>
<path d="M153 132.812H147.333V138.125H153V132.812Z" fill="#BFA933"/>
<path d="M158.667 132.812H153V138.125H158.667V132.812Z" fill="#C0AA33"/>
<path d="M164.334 132.812H158.667V138.125H164.334V132.812Z" fill="#C1AB33"/>
<path d="M170 132.812H164.333V138.125H170V132.812Z" fill="#C2AB33"/>
<path d="M175.667 132.812H170V138.125H175.667V132.812Z" fill="#C3AC33"/>
<path d="M181.334 132.812H175.667V138.125H181.334V132.812Z" fill="#C3AD33"/>
<path d="M187 132.812H181.333V138.125H187V132.812Z" fill="#C4AE33"/>
<path d="M192.667 132.812H187V138.125H192.667V132.812Z" fill="#C5AF33"/>
<path d="M198.334 132.812H192.667V138.125H198.334V132.812Z" fill="#C6AF33"/>
<path d="M204 132.812H198.333V138.125H204V132.812Z" fill="#C7B033"/>
<path d="M209.667 132.812H204V138.125H209.667V132.812Z" fill="#C8B033"/>
<path d="M215.334 132.812H209.667V138.125H215.334V132.812Z" fill="#C9B133"/>
<path d="M62.3337 138.125H56.667V143.438H62.3337V138.125Z" fill="#AE9B33"/>
<path d="M67.9997 138.125H62.333V143.438H67.9997V138.125Z" fill="#AF9B33"/>
<path d="M73.6667 138.125H68V143.438H73.6667V138.125Z" fill="#AF9C33"/>
<path d="M79.3337 138.125H73.667V143.438H79.3337V138.125Z" fill="#B09D33"/>
<path d="M84.9997 138.125H79.333V143.438H84.9997V138.125Z" fill="#B19E33"/>
<path d="M90.6667 138.125H85V143.438H90.6667V138.125Z" fill="#B39F33"/>
<path d="M96.3337 138.125H90.667V143.438H96.3337V138.125Z" fill="#B39F33"/>
<path d="M102 138.125H96.333V143.438H102V138.125Z" fill="#B4A033"/>
<path d="M107.667 138.125H102V143.438H107.667V138.125Z" fill="#B5A033"/>
<path d="M113.334 138.125H107.667V143.438H113.334V138.125Z" fill="#B6A133"/>
<path d="M119 138.125H113.333V143.438H119V138.125Z" fill="#B7A233"/>
<path d="M124.667 138.125H119V143.438H124.667V138.125Z" fill="#B7A333"/>
<path d="M130.334 138.125H124.667V143.438H130.334V138.125Z" fill="#B8A333"/>
<path d="M136 138.125H130.333V143.438H136V138.125Z" fill="#BAA433"/>
<path d="M141.667 138.125H136V143.438H141.667V138.125Z" fill="#BBA533"/>
<path d="M147.334 138.125H141.667V143.438H147.334V138.125Z" fill="#BBA633"/>
<path d="M153 138.125H147.333V143.438H153V138.125Z" fill="#BCA733"/>
<path d="M158.667 138.125H153V143.438H158.667V138.125Z" fill="#BDA733"/>
<path d="M164.334 138.125H158.667V143.438H164.334V138.125Z" fill="#BEA833"/>
<path d="M170 138.125H164.333V143.438H170V138.125Z" fill="#BFA933"/>
<path d="M175.667 138.125H170V143.438H175.667V138.125Z" fill="#BFAA33"/>
<path d="M181.334 138.125H175.667V143.438H181.334V138.125Z" fill="#C1AB33"/>
<path d="M187 138.125H181.333V143.438H187V138.125Z" fill="#C2AB33"/>
<path d="M192.667 138.125H187V143.438H192.667V138.125Z" fill="#C3AC33"/>
<path d="M198.334 138.125H192.667V143.438H198.334V138.125Z" fill="#C3AD33"/>
<path d="M204 138.125H198.333V143.438H204V138.125Z" fill="#C4AE33"/>
<path d="M209.667 138.125H204V143.438H209.667V138.125Z" fill="#C5AF33"/>
<path d="M215.334 138.125H209.667V143.438H215.334V138.125Z" fill="#C6AF33"/>
<path d="M62.3337 143.438H56.667V148.75H62.3337V143.438Z" fill="#AB9833"/>
<path d="M67.9997 143.438H62.333V148.75H67.9997V143.438Z" fill="#AC9933"/>
<path d="M73.6667 143.438H68V148.75H73.6667V143.438Z" fill="#AD9A33"/>
<path d="M79.3337 143.438H73.667V148.75H79.3337V143.438Z" fill="#AE9B33"/>
<path d="M84.9997 143.438H79.333V148.75H84.9997V143.438Z" fill="#AF9B33"/>
<path d="M90.6667 143.438H85V148.75H90.6667V143.438Z" fill="#AF9C33"/>
<path d="M96.3337 143.438H90.667V148.75H96.3337V143.438Z" fill="#B09D33"/>
<path d="M102 143.438H96.333V148.75H102V143.438Z" fill="#B19E33"/>
<path d="M107.667 143.438H102V148.75H107.667V143.438Z" fill="#B39F33"/>
<path d="M113.334 143.438H107.667V148.75H113.334V143.438Z" fill="#B39F33"/>
<path d="M119 143.438H113.333V148.75H119V143.438Z" fill="#B49F33"/>
<path d="M124.667 143.438H119V148.75H124.667V143.438Z" fill="#B5A033"/>
<path d="M130.334 143.438H124.667V148.75H130.334V143.438Z" fill="#B6A133"/>
<path d="M136 143.438H130.333V148.75H136V143.438Z" fill="#B7A233"/>
<path d="M141.667 143.438H136V148.75H141.667V143.438Z" fill="#B7A333"/>
<path d="M147.334 143.438H141.667V148.75H147.334V143.438Z" fill="#B8A333"/>
<path d="M153 143.438H147.333V148.75H153V143.438Z" fill="#BAA433"/>
<path d="M158.667 143.438H153V148.75H158.667V143.438Z" fill="#BBA533"/>
<path d="M164.334 143.438H158.667V148.75H164.334V143.438Z" fill="#BBA633"/>
<path d="M170 143.438H164.333V148.75H170V143.438Z" fill="#BCA733"/>
<path d="M175.667 143.438H170V148.75H175.667V143.438Z" fill="#BDA733"/>
<path d="M181.334 143.438H175.667V148.75H181.334V143.438Z" fill="#BEA833"/>
<path d="M187 143.438H181.333V148.75H187V143.438Z" fill="#BFA933"/>
<path d="M192.667 143.438H187V148.75H192.667V143.438Z" fill="#BFAA33"/>
<path d="M198.334 143.438H192.667V148.75H198.334V143.438Z" fill="#C1AB33"/>
<path d="M204 143.438H198.333V148.75H204V143.438Z" fill="#C2AB33"/>
<path d="M209.667 143.438H204V148.75H209.667V143.438Z" fill="#C3AC33"/>
<path d="M215.334 143.438H209.667V148.75H215.334V143.438Z" fill="#C3AD33"/>
<path d="M62.3337 148.75H56.667V154.062H62.3337V148.75Z" fill="#A89633"/>
<path d="M67.9997 148.75H62.333V154.062H67.9997V148.75Z" fill="#A99733"/>
<path d="M73.6667 148.75H68V154.062H73.6667V148.75Z" fill="#AA9733"/>
<path d="M79.3337 148.75H73.667V154.062H79.3337V148.75Z" fill="#AB9833"/>
<path d="M84.9997 148.75H79.333V154.062H84.9997V148.75Z" fill="#AC9933"/>
<path d="M90.6667 148.75H85V154.062H90.6667V148.75Z" fill="#AD9A33"/>
<path d="M96.3337 148.75H90.667V154.062H96.3337V148.75Z" fill="#AE9B33"/>
<path d="M102 148.75H96.333V154.062H102V148.75Z" fill="#AF9B33"/>
<path d="M107.667 148.75H102V154.062H107.667V148.75Z" fill="#AF9C33"/>
<path d="M113.334 148.75H107.667V154.062H113.334V148.75Z" fill="#B09D33"/>
<path d="M119 148.75H113.333V154.062H119V148.75Z" fill="#B19E33"/>
<path d="M124.667 148.75H119V154.062H124.667V148.75Z" fill="#B29F33"/>
<path d="M130.334 148.75H124.667V154.062H130.334V148.75Z" fill="#B39F33"/>
<path d="M136 148.75H130.333V154.062H136V148.75Z" fill="#B49F33"/>
<path d="M141.667 148.75H136V154.062H141.667V148.75Z" fill="#B5A033"/>
<path d="M147.334 148.75H141.667V154.062H147.334V148.75Z" fill="#B6A133"/>
<path d="M153 148.75H147.333V154.062H153V148.75Z" fill="#B7A233"/>
<path d="M158.667 148.75H153V154.062H158.667V148.75Z" fill="#B7A333"/>
<path d="M164.334 148.75H158.667V154.062H164.334V148.75Z" fill="#B8A333"/>
<path d="M170 148.75H164.333V154.062H170V148.75Z" fill="#B9A433"/>
<path d="M175.667 148.75H170V154.062H175.667V148.75Z" fill="#BBA533"/>
<path d="M181.334 148.75H175.667V154.062H181.334V148.75Z" fill="#BBA633"/>
<path d="M187 148.75H181.333V154.062H187V148.75Z" fill="#BCA733"/>
<path d="M192.667 148.75H187V154.062H192.667V148.75Z" fill="#BDA733"/>
<path d="M198.334 148.75H192.667V154.062H198.334V148.75Z" fill="#BEA833"/>
<path d="M204 148.75H198.333V154.062H204V148.75Z" fill="#BFA933"/>
<path d="M209.667 148.75H204V154.062H209.667V148.75Z" fill="#BFAA33"/>
<path d="M215.334 148.75H209.667V154.062H215.334V148.75Z" fill="#C1AB33"/>
<path d="M56.6667 154.062H51V159.375H56.6667V154.062Z" fill="#A49333"/>
<path d="M62.3337 154.062H56.667V159.375H62.3337V154.062Z" fill="#A69333"/>
<path d="M67.9997 154.062H62.333V159.375H67.9997V154.062Z" fill="#A79433"/>
<path d="M73.6667 154.062H68V159.375H73.6667V154.062Z" fill="#A79533"/>
<path d="M79.3337 154.062H73.667V159.375H79.3337V154.062Z" fill="#A89633"/>
<path d="M84.9997 154.062H79.333V159.375H84.9997V154.062Z" fill="#A99733"/>
<path d="M90.6667 154.062H85V159.375H90.6667V154.062Z" fill="#AA9733"/>
<path d="M96.3337 154.062H90.667V159.375H96.3337V154.062Z" fill="#AB9833"/>
<path d="M102 154.062H96.333V159.375H102V154.062Z" fill="#AC9933"/>
<path d="M107.667 154.062H102V159.375H107.667V154.062Z" fill="#AD9A33"/>
<path d="M113.334 154.062H107.667V159.375H113.334V154.062Z" fill="#AE9B33"/>
<path d="M119 154.062H113.333V159.375H119V154.062Z" fill="#AF9B33"/>
<path d="M124.667 154.062H119V159.375H124.667V154.062Z" fill="#AF9C33"/>
<path d="M130.334 154.062H124.667V159.375H130.334V154.062Z" fill="#B09D33"/>
<path d="M136 154.062H130.333V159.375H136V154.062Z" fill="#B19E33"/>
<path d="M141.667 154.062H136V159.375H141.667V154.062Z" fill="#B29E33"/>
<path d="M147.334 154.062H141.667V159.375H147.334V154.062Z" fill="#B39F33"/>
<path d="M153 154.062H147.333V159.375H153V154.062Z" fill="#B49F33"/>
<path d="M158.667 154.062H153V159.375H158.667V154.062Z" fill="#B5A033"/>
<path d="M164.334 154.062H158.667V159.375H164.334V154.062Z" fill="#B6A133"/>
<path d="M170 154.062H164.333V159.375H170V154.062Z" fill="#B7A233"/>
<path d="M175.667 154.062H170V159.375H175.667V154.062Z" fill="#B7A333"/>
<path d="M181.334 154.062H175.667V159.375H181.334V154.062Z" fill="#B8A333"/>
<path d="M187 154.062H181.333V159.375H187V154.062Z" fill="#B9A433"/>
<path d="M192.667 154.062H187V159.375H192.667V154.062Z" fill="#BBA533"/>
<path d="M198.334 154.062H192.667V159.375H198.334V154.062Z" fill="#BBA633"/>
<path d="M204 154.062H198.333V159.375H204V154.062Z" fill="#BCA733"/>
<path d="M209.667 154.062H204V159.375H209.667V154.062Z" fill="#BDA733"/>
<path d="M215.334 154.062H209.667V159.375H215.334V154.062Z" fill="#BEA833"/>
<path d="M221 154.062H215.333V159.375H221V154.062Z" fill="#BFA933"/>
<path d="M56.6667 159.375H51V164.688H56.6667V159.375Z" fill="#A29033"/>
<path d="M62.3337 159.375H56.667V164.688H62.3337V159.375Z" fill="#A39133"/>
<path d="M67.9997 159.375H62.333V164.688H67.9997V159.375Z" fill="#A39233"/>
<path d="M73.6667 159.375H68V164.688H73.6667V159.375Z" fill="#A49333"/>
<path d="M79.3337 159.375H73.667V164.688H79.3337V159.375Z" fill="#A69333"/>
<path d="M84.9997 159.375H79.333V164.688H84.9997V159.375Z" fill="#A79433"/>
<path d="M90.6667 159.375H85V164.688H90.6667V159.375Z" fill="#A79533"/>
<path d="M96.3337 159.375H90.667V164.688H96.3337V159.375Z" fill="#A89633"/>
<path d="M102 159.375H96.333V164.688H102V159.375Z" fill="#A99733"/>
<path d="M107.667 159.375H102V164.688H107.667V159.375Z" fill="#AA9733"/>
<path d="M113.334 159.375H107.667V164.688H113.334V159.375Z" fill="#AB9833"/>
<path d="M119 159.375H113.333V164.688H119V159.375Z" fill="#AB9933"/>
<path d="M124.667 159.375H119V164.688H124.667V159.375Z" fill="#AD9A33"/>
<path d="M130.334 159.375H124.667V164.688H130.334V159.375Z" fill="#AE9B33"/>
<path d="M136 159.375H130.333V164.688H136V159.375Z" fill="#AF9B33"/>
<path d="M141.667 159.375H136V164.688H141.667V159.375Z" fill="#AF9C33"/>
<path d="M147.334 159.375H141.667V164.688H147.334V159.375Z" fill="#B09D33"/>
<path d="M153 159.375H147.333V164.688H153V159.375Z" fill="#B19D33"/>
<path d="M158.667 159.375H153V164.688H158.667V159.375Z" fill="#B29E33"/>
<path d="M164.334 159.375H158.667V164.688H164.334V159.375Z" fill="#B39F33"/>
<path d="M170 159.375H164.333V164.688H170V159.375Z" fill="#B49F33"/>
<path d="M175.667 159.375H170V164.688H175.667V159.375Z" fill="#B5A033"/>
<path d="M181.334 159.375H175.667V164.688H181.334V159.375Z" fill="#B6A133"/>
<path d="M187 159.375H181.333V164.688H187V159.375Z" fill="#B7A233"/>
<path d="M192.667 159.375H187V164.688H192.667V159.375Z" fill="#B7A333"/>
<path d="M198.334 159.375H192.667V164.688H198.334V159.375Z" fill="#B8A333"/>
<path d="M204 159.375H198.333V164.688H204V159.375Z" fill="#B9A433"/>
<path d="M209.667 159.375H204V164.688H209.667V159.375Z" fill="#BBA533"/>
<path d="M215.334 159.375H209.667V164.688H215.334V159.375Z" fill="#BBA633"/>
<path d="M221 159.375H215.333V164.688H221V159.375Z" fill="#BCA733"/>
<path d="M56.6667 164.688H51V170H56.6667V164.688Z" fill="#9F8E33"/>
<path d="M62.3337 164.688H56.667V170H62.3337V164.688Z" fill="#A08F33"/>
<path d="M67.9997 164.688H62.333V170H67.9997V164.688Z" fill="#A18F33"/>
<path d="M73.6667 164.688H68V170H73.6667V164.688Z" fill="#A29033"/>
<path d="M79.3337 164.688H73.667V170H79.3337V164.688Z" fill="#A39133"/>
<path d="M84.9997 164.688H79.333V170H84.9997V164.688Z" fill="#A39233"/>
<path d="M90.6667 164.688H85V170H90.6667V164.688Z" fill="#A49333"/>
<path d="M96.3337 164.688H90.667V170H96.3337V164.688Z" fill="#A69333"/>
<path d="M102 164.688H96.333V170H102V164.688Z" fill="#A79433"/>
<path d="M107.667 164.688H102V170H107.667V164.688Z" fill="#A79533"/>
<path d="M113.334 164.688H107.667V170H113.334V164.688Z" fill="#A89633"/>
<path d="M119 164.688H113.333V170H119V164.688Z" fill="#A99733"/>
<path d="M124.667 164.688H119V170H124.667V164.688Z" fill="#AA9733"/>
<path d="M130.334 164.688H124.667V170H130.334V164.688Z" fill="#AB9833"/>
<path d="M136 164.688H130.333V170H136V164.688Z" fill="#AB9933"/>
<path d="M141.667 164.688H136V170H141.667V164.688Z" fill="#AD9A33"/>
<path d="M147.334 164.688H141.667V170H147.334V164.688Z" fill="#AE9B33"/>
<path d="M153 164.688H147.333V170H153V164.688Z" fill="#AF9B33"/>
<path d="M158.667 164.688H153V170H158.667V164.688Z" fill="#AF9C33"/>
<path d="M164.334 164.688H158.667V170H164.334V164.688Z" fill="#B09C33"/>
<path d="M170 164.688H164.333V170H170V164.688Z" fill="#B19D33"/>
<path d="M175.667 164.688H170V170H175.667V164.688Z" fill="#B29E33"/>
<path d="M181.334 164.688H175.667V170H181.334V164.688Z" fill="#B39F33"/>
<path d="M187 164.688H181.333V170H187V164.688Z" fill="#B49F33"/>
<path d="M192.667 164.688H187V170H192.667V164.688Z" fill="#B5A033"/>
<path d="M198.334 164.688H192.667V170H198.334V164.688Z" fill="#B6A133"/>
<path d="M204 164.688H198.333V170H204V164.688Z" fill="#B7A233"/>
<path d="M209.667 164.688H204V170H209.667V164.688Z" fill="#B7A333"/>
<path d="M215.334 164.688H209.667V170H215.334V164.688Z" fill="#B8A333"/>
<path d="M221 164.688H215.333V170H221V164.688Z" fill="#B9A433"/>
<path d="M50.9997 170H45.333V175.312H50.9997V170Z" fill="#9B8B33"/>
<path d="M56.6667 170H51V175.312H56.6667V170Z" fill="#9C8C33"/>
<path d="M62.3337 170H56.667V175.312H62.3337V170Z" fill="#9D8C33"/>
<path d="M67.9997 170H62.333V175.312H67.9997V170Z" fill="#9E8D33"/>
<path d="M73.6667 170H68V175.312H73.6667V170Z" fill="#9F8E33"/>
<path d="M79.3337 170H73.667V175.312H79.3337V170Z" fill="#A08F33"/>
<path d="M84.9997 170H79.333V175.312H84.9997V170Z" fill="#A18F33"/>
<path d="M90.6667 170H85V175.312H90.6667V170Z" fill="#A29033"/>
<path d="M96.3337 170H90.667V175.312H96.3337V170Z" fill="#A39133"/>
<path d="M102 170H96.333V175.312H102V170Z" fill="#A39233"/>
<path d="M107.667 170H102V175.312H107.667V170Z" fill="#A49333"/>
<path d="M113.334 170H107.667V175.312H113.334V170Z" fill="#A59333"/>
<path d="M119 170H113.333V175.312H119V170Z" fill="#A79433"/>
<path d="M124.667 170H119V175.312H124.667V170Z" fill="#A79533"/>
<path d="M130.334 170H124.667V175.312H130.334V170Z" fill="#A89633"/>
<path d="M136 170H130.333V175.312H136V170Z" fill="#A99733"/>
<path d="M141.667 170H136V175.312H141.667V170Z" fill="#AA9733"/>
<path d="M147.334 170H141.667V175.312H147.334V170Z" fill="#AB9833"/>
<path d="M153 170H147.333V175.312H153V170Z" fill="#AB9933"/>
<path d="M158.667 170H153V175.312H158.667V170Z" fill="#AC9A33"/>
<path d="M164.334 170H158.667V175.312H164.334V170Z" fill="#AE9B33"/>
<path d="M170 170H164.333V175.312H170V170Z" fill="#AF9B33"/>
<path d="M175.667 170H170V175.312H175.667V170Z" fill="#AF9B33"/>
<path d="M181.334 170H175.667V175.312H181.334V170Z" fill="#B09C33"/>
<path d="M187 170H181.333V175.312H187V170Z" fill="#B19D33"/>
<path d="M192.667 170H187V175.312H192.667V170Z" fill="#B29E33"/>
<path d="M198.334 170H192.667V175.312H198.334V170Z" fill="#B39F33"/>
<path d="M204 170H198.333V175.312H204V170Z" fill="#B49F33"/>
<path d="M209.667 170H204V175.312H209.667V170Z" fill="#B5A033"/>
<path d="M215.334 170H209.667V175.312H215.334V170Z" fill="#B6A133"/>
<path d="M221 170H215.333V175.312H221V170Z" fill="#B7A233"/>
<path d="M226.667 170H221V175.312H226.667V170Z" fill="#B7A333"/>
<path d="M50.9997 175.312H45.333V180.625H50.9997V175.312Z" fill="#998933"/>
<path d="M56.6667 175.312H51V180.625H56.6667V175.312Z" fill="#9A8A33"/>
<path d="M62.3337 175.312H56.667V180.625H62.3337V175.312Z" fill="#9B8B33"/>
<path d="M67.9997 175.312H62.333V180.625H67.9997V175.312Z" fill="#9B8B33"/>
<path d="M73.6667 175.312H68V180.625H73.6667V175.312Z" fill="#9C8B33"/>
<path d="M79.3337 175.312H73.667V180.625H79.3337V175.312Z" fill="#9D8C33"/>
<path d="M84.9997 175.312H79.333V180.625H84.9997V175.312Z" fill="#9E8D33"/>
<path d="M90.6667 175.312H85V180.625H90.6667V175.312Z" fill="#9F8E33"/>
<path d="M96.3337 175.312H90.667V180.625H96.3337V175.312Z" fill="#A08F33"/>
<path d="M102 175.312H96.333V180.625H102V175.312Z" fill="#A18F33"/>
<path d="M107.667 175.312H102V180.625H107.667V175.312Z" fill="#A29033"/>
<path d="M113.334 175.312H107.667V180.625H113.334V175.312Z" fill="#A39133"/>
<path d="M119 175.312H113.333V180.625H119V175.312Z" fill="#A39233"/>
<path d="M124.667 175.312H119V180.625H124.667V175.312Z" fill="#A49333"/>
<path d="M130.334 175.312H124.667V180.625H130.334V175.312Z" fill="#A59333"/>
<path d="M136 175.312H130.333V180.625H136V175.312Z" fill="#A79433"/>
<path d="M141.667 175.312H136V180.625H141.667V175.312Z" fill="#A79533"/>
<path d="M147.334 175.312H141.667V180.625H147.334V175.312Z" fill="#A89633"/>
<path d="M153 175.312H147.333V180.625H153V175.312Z" fill="#A99733"/>
<path d="M158.667 175.312H153V180.625H158.667V175.312Z" fill="#AA9733"/>
<path d="M164.334 175.312H158.667V180.625H164.334V175.312Z" fill="#AB9833"/>
<path d="M170 175.312H164.333V180.625H170V175.312Z" fill="#AB9933"/>
<path d="M175.667 175.312H170V180.625H175.667V175.312Z" fill="#AC9A33"/>
<path d="M181.334 175.312H175.667V180.625H181.334V175.312Z" fill="#AE9B33"/>
<path d="M187 175.312H181.333V180.625H187V175.312Z" fill="#AF9B33"/>
<path d="M192.667 175.312H187V180.625H192.667V175.312Z" fill="#AF9B33"/>
<path d="M198.334 175.312H192.667V180.625H198.334V175.312Z" fill="#B09C33"/>
<path d="M204 175.312H198.333V180.625H204V175.312Z" fill="#B19D33"/>
<path d="M209.667 175.312H204V180.625H209.667V175.312Z" fill="#B29E33"/>
<path d="M215.334 175.312H209.667V180.625H215.334V175.312Z" fill="#B39F33"/>
<path d="M221 175.312H215.333V180.625H221V175.312Z" fill="#B39F33"/>
<path d="M226.667 175.312H221V180.625H226.667V175.312Z" fill="#B5A033"/>
<path d="M50.9997 180.625H45.333V185.938H50.9997V180.625Z" fill="#968733"/>
<path d="M56.6667 180.625H51V185.938H56.6667V180.625Z" fill="#978733"/>
<path d="M62.3337 180.625H56.667V185.938H62.3337V180.625Z" fill="#978833"/>
<path d="M67.9997 180.625H62.333V185.938H67.9997V180.625Z" fill="#998933"/>
<path d="M73.6667 180.625H68V185.938H73.6667V180.625Z" fill="#9A8A33"/>
<path d="M79.3337 180.625H73.667V185.938H79.3337V180.625Z" fill="#9B8B33"/>
<path d="M84.9997 180.625H79.333V185.938H84.9997V180.625Z" fill="#9B8B33"/>
<path d="M90.6667 180.625H85V185.938H90.6667V180.625Z" fill="#9C8B33"/>
<path d="M96.3337 180.625H90.667V185.938H96.3337V180.625Z" fill="#9D8C33"/>
<path d="M102 180.625H96.333V185.938H102V180.625Z" fill="#9E8D33"/>
<path d="M107.667 180.625H102V185.938H107.667V180.625Z" fill="#9F8E33"/>
<path d="M113.334 180.625H107.667V185.938H113.334V180.625Z" fill="#A08F33"/>
<path d="M119 180.625H113.333V185.938H119V180.625Z" fill="#A18F33"/>
<path d="M124.667 180.625H119V185.938H124.667V180.625Z" fill="#A29033"/>
<path d="M130.334 180.625H124.667V185.938H130.334V180.625Z" fill="#A39133"/>
<path d="M136 180.625H130.333V185.938H136V180.625Z" fill="#A39233"/>
<path d="M141.667 180.625H136V185.938H141.667V180.625Z" fill="#A49333"/>
<path d="M147.334 180.625H141.667V185.938H147.334V180.625Z" fill="#A59333"/>
<path d="M153 180.625H147.333V185.938H153V180.625Z" fill="#A69433"/>
<path d="M158.667 180.625H153V185.938H158.667V180.625Z" fill="#A79533"/>
<path d="M164.334 180.625H158.667V185.938H164.334V180.625Z" fill="#A89633"/>
<path d="M170 180.625H164.333V185.938H170V180.625Z" fill="#A99733"/>
<path d="M175.667 180.625H170V185.938H175.667V180.625Z" fill="#AA9733"/>
<path d="M181.334 180.625H175.667V185.938H181.334V180.625Z" fill="#AB9833"/>
<path d="M187 180.625H181.333V185.938H187V180.625Z" fill="#AB9933"/>
<path d="M192.667 180.625H187V185.938H192.667V180.625Z" fill="#AC9A33"/>
<path d="M198.334 180.625H192.667V185.938H198.334V180.625Z" fill="#AE9B33"/>
<path d="M204 180.625H198.333V185.938H204V180.625Z" fill="#AF9B33"/>
<path d="M209.667 180.625H204V185.938H209.667V180.625Z" fill="#AF9B33"/>
<path d="M215.334 180.625H209.667V185.938H215.334V180.625Z" fill="#B09C33"/>
<path d="M221 180.625H215.333V185.938H221V180.625Z" fill="#B19D33"/>
<path d="M226.667 180.625H221V185.938H226.667V180.625Z" fill="#B29E33"/>
<path d="M50.9997 185.938H45.333V191.25H50.9997V185.938Z" fill="#938433"/>
<path d="M56.6667 185.938H51V191.25H56.6667V185.938Z" fill="#948533"/>
<path d="M62.3337 185.938H56.667V191.25H62.3337V185.938Z" fill="#958633"/>
<path d="M67.9997 185.938H62.333V191.25H67.9997V185.938Z" fill="#968733"/>
<path d="M73.6667 185.938H68V191.25H73.6667V185.938Z" fill="#978733"/>
<path d="M79.3337 185.938H73.667V191.25H79.3337V185.938Z" fill="#978833"/>
<path d="M84.9997 185.938H79.333V191.25H84.9997V185.938Z" fill="#998933"/>
<path d="M90.6667 185.938H85V191.25H90.6667V185.938Z" fill="#9A8A33"/>
<path d="M96.3337 185.938H90.667V191.25H96.3337V185.938Z" fill="#9B8A33"/>
<path d="M102 185.938H96.333V191.25H102V185.938Z" fill="#9B8B33"/>
<path d="M107.667 185.938H102V191.25H107.667V185.938Z" fill="#9C8B33"/>
<path d="M113.334 185.938H107.667V191.25H113.334V185.938Z" fill="#9D8C33"/>
<path d="M119 185.938H113.333V191.25H119V185.938Z" fill="#9E8D33"/>
<path d="M124.667 185.938H119V191.25H124.667V185.938Z" fill="#9F8E33"/>
<path d="M130.334 185.938H124.667V191.25H130.334V185.938Z" fill="#A08F33"/>
<path d="M136 185.938H130.333V191.25H136V185.938Z" fill="#A18F33"/>
<path d="M141.667 185.938H136V191.25H141.667V185.938Z" fill="#A29033"/>
<path d="M147.334 185.938H141.667V191.25H147.334V185.938Z" fill="#A39133"/>
<path d="M153 185.938H147.333V191.25H153V185.938Z" fill="#A39233"/>
<path d="M158.667 185.938H153V191.25H158.667V185.938Z" fill="#A49333"/>
<path d="M164.334 185.938H158.667V191.25H164.334V185.938Z" fill="#A59333"/>
<path d="M170 185.938H164.333V191.25H170V185.938Z" fill="#A69433"/>
<path d="M175.667 185.938H170V191.25H175.667V185.938Z" fill="#A79533"/>
<path d="M181.334 185.938H175.667V191.25H181.334V185.938Z" fill="#A89633"/>
<path d="M187 185.938H181.333V191.25H187V185.938Z" fill="#A99733"/>
<path d="M192.667 185.938H187V191.25H192.667V185.938Z" fill="#AA9733"/>
<path d="M198.334 185.938H192.667V191.25H198.334V185.938Z" fill="#AB9833"/>
<path d="M204 185.938H198.333V191.25H204V185.938Z" fill="#AB9933"/>
<path d="M209.667 185.938H204V191.25H209.667V185.938Z" fill="#AC9A33"/>
<path d="M215.334 185.938H209.667V191.25H215.334V185.938Z" fill="#AD9A33"/>
<path d="M221 185.938H215.333V191.25H221V185.938Z" fill="#AF9B33"/>
<path d="M226.667 185.938H221V191.25H226.667V185.938Z" fill="#AF9B33"/>
<path d="M45.3337 191.25H39.667V196.562H45.3337V191.25Z" fill="#8F8133"/>
<path d="M50.9997 191.25H45.333V196.562H50.9997V191.25Z" fill="#908233"/>
<path d="M56.6667 191.25H51V196.562H56.6667V191.25Z" fill="#918333"/>
<path d="M62.3337 191.25H56.667V196.562H62.3337V191.25Z" fill="#938333"/>
<path d="M67.9997 191.25H62.333V196.562H67.9997V191.25Z" fill="#938433"/>
<path d="M73.6667 191.25H68V196.562H73.6667V191.25Z" fill="#948533"/>
<path d="M79.3337 191.25H73.667V196.562H79.3337V191.25Z" fill="#958633"/>
<path d="M84.9997 191.25H79.333V196.562H84.9997V191.25Z" fill="#968733"/>
<path d="M90.6667 191.25H85V196.562H90.6667V191.25Z" fill="#978733"/>
<path d="M96.3337 191.25H90.667V196.562H96.3337V191.25Z" fill="#978833"/>
<path d="M102 191.25H96.333V196.562H102V191.25Z" fill="#988933"/>
<path d="M107.667 191.25H102V196.562H107.667V191.25Z" fill="#9A8933"/>
<path d="M113.334 191.25H107.667V196.562H113.334V191.25Z" fill="#9B8A33"/>
<path d="M119 191.25H113.333V196.562H119V191.25Z" fill="#9B8B33"/>
<path d="M124.667 191.25H119V196.562H124.667V191.25Z" fill="#9C8B33"/>
<path d="M130.334 191.25H124.667V196.562H130.334V191.25Z" fill="#9D8C33"/>
<path d="M136 191.25H130.333V196.562H136V191.25Z" fill="#9E8D33"/>
<path d="M141.667 191.25H136V196.562H141.667V191.25Z" fill="#9F8E33"/>
<path d="M147.334 191.25H141.667V196.562H147.334V191.25Z" fill="#9F8F33"/>
<path d="M153 191.25H147.333V196.562H153V191.25Z" fill="#A18F33"/>
<path d="M158.667 191.25H153V196.562H158.667V191.25Z" fill="#A29033"/>
<path d="M164.334 191.25H158.667V196.562H164.334V191.25Z" fill="#A39133"/>
<path d="M170 191.25H164.333V196.562H170V191.25Z" fill="#A39233"/>
<path d="M175.667 191.25H170V196.562H175.667V191.25Z" fill="#A49333"/>
<path d="M181.334 191.25H175.667V196.562H181.334V191.25Z" fill="#A59333"/>
<path d="M187 191.25H181.333V196.562H187V191.25Z" fill="#A69433"/>
<path d="M192.667 191.25H187V196.562H192.667V191.25Z" fill="#A79533"/>
<path d="M198.334 191.25H192.667V196.562H198.334V191.25Z" fill="#A89633"/>
<path d="M204 191.25H198.333V196.562H204V191.25Z" fill="#A99733"/>
<path d="M209.667 191.25H204V196.562H209.667V191.25Z" fill="#AA9733"/>
<path d="M215.334 191.25H209.667V196.562H215.334V191.25Z" fill="#AB9833"/>
<path d="M221 191.25H215.333V196.562H221V191.25Z" fill="#AB9933"/>
<path d="M226.667 191.25H221V196.562H226.667V191.25Z" fill="#AC9933"/>
<path d="M232.334 191.25H226.667V196.562H232.334V191.25Z" fill="#AD9A33"/>
<path d="M45.3337 196.562H39.667V201.875H45.3337V196.562Z" fill="#8D7F33"/>
<path d="M50.9997 196.562H45.333V201.875H50.9997V196.562Z" fill="#8E7F33"/>
<path d="M56.6667 196.562H51V201.875H56.6667V196.562Z" fill="#8F8033"/>
<path d="M62.3337 196.562H56.667V201.875H62.3337V196.562Z" fill="#8F8133"/>
<path d="M67.9997 196.562H62.333V201.875H67.9997V196.562Z" fill="#908233"/>
<path d="M73.6667 196.562H68V201.875H73.6667V196.562Z" fill="#918333"/>
<path d="M79.3337 196.562H73.667V201.875H79.3337V196.562Z" fill="#938333"/>
<path d="M84.9997 196.562H79.333V201.875H84.9997V196.562Z" fill="#938433"/>
<path d="M90.6667 196.562H85V201.875H90.6667V196.562Z" fill="#948533"/>
<path d="M96.3337 196.562H90.667V201.875H96.3337V196.562Z" fill="#958633"/>
<path d="M102 196.562H96.333V201.875H102V196.562Z" fill="#968733"/>
<path d="M107.667 196.562H102V201.875H107.667V196.562Z" fill="#978733"/>
<path d="M113.334 196.562H107.667V201.875H113.334V196.562Z" fill="#978833"/>
<path d="M119 196.562H113.333V201.875H119V196.562Z" fill="#988933"/>
<path d="M124.667 196.562H119V201.875H124.667V196.562Z" fill="#9A8933"/>
<path d="M130.334 196.562H124.667V201.875H130.334V196.562Z" fill="#9B8A33"/>
<path d="M136 196.562H130.333V201.875H136V196.562Z" fill="#9B8B33"/>
<path d="M141.667 196.562H136V201.875H141.667V196.562Z" fill="#9C8B33"/>
<path d="M147.334 196.562H141.667V201.875H147.334V196.562Z" fill="#9D8C33"/>
<path d="M153 196.562H147.333V201.875H153V196.562Z" fill="#9E8D33"/>
<path d="M158.667 196.562H153V201.875H158.667V196.562Z" fill="#9F8E33"/>
<path d="M164.334 196.562H158.667V201.875H164.334V196.562Z" fill="#9F8F33"/>
<path d="M170 196.562H164.333V201.875H170V196.562Z" fill="#A18F33"/>
<path d="M175.667 196.562H170V201.875H175.667V196.562Z" fill="#A29033"/>
<path d="M181.334 196.562H175.667V201.875H181.334V196.562Z" fill="#A39133"/>
<path d="M187 196.562H181.333V201.875H187V196.562Z" fill="#A39233"/>
<path d="M192.667 196.562H187V201.875H192.667V196.562Z" fill="#A49333"/>
<path d="M198.334 196.562H192.667V201.875H198.334V196.562Z" fill="#A59333"/>
<path d="M204 196.562H198.333V201.875H204V196.562Z" fill="#A69433"/>
<path d="M209.667 196.562H204V201.875H209.667V196.562Z" fill="#A79533"/>
<path d="M215.334 196.562H209.667V201.875H215.334V196.562Z" fill="#A89633"/>
<path d="M221 196.562H215.333V201.875H221V196.562Z" fill="#A99733"/>
<path d="M226.667 196.562H221V201.875H226.667V196.562Z" fill="#AA9733"/>
<path d="M232.334 196.562H226.667V201.875H232.334V196.562Z" fill="#AB9833"/>
<path d="M45.3337 201.875H39.667V207.188H45.3337V201.875Z" fill="#8A7C33"/>
<path d="M50.9997 201.875H45.333V207.188H50.9997V201.875Z" fill="#8B7D33"/>
<path d="M56.6667 201.875H51V207.188H56.6667V201.875Z" fill="#8C7E33"/>
<path d="M62.3337 201.875H56.667V207.188H62.3337V201.875Z" fill="#8D7F33"/>
<path d="M67.9997 201.875H62.333V207.188H67.9997V201.875Z" fill="#8E7F33"/>
<path d="M73.6667 201.875H68V207.188H73.6667V201.875Z" fill="#8F8033"/>
<path d="M79.3337 201.875H73.667V207.188H79.3337V201.875Z" fill="#8F8133"/>
<path d="M84.9997 201.875H79.333V207.188H84.9997V201.875Z" fill="#908233"/>
<path d="M90.6667 201.875H85V207.188H90.6667V201.875Z" fill="#918333"/>
<path d="M96.3337 201.875H90.667V207.188H96.3337V201.875Z" fill="#928333"/>
<path d="M102 201.875H96.333V207.188H102V201.875Z" fill="#938433"/>
<path d="M107.667 201.875H102V207.188H107.667V201.875Z" fill="#948533"/>
<path d="M113.334 201.875H107.667V207.188H113.334V201.875Z" fill="#958633"/>
<path d="M119 201.875H113.333V207.188H119V201.875Z" fill="#968733"/>
<path d="M124.667 201.875H119V207.188H124.667V201.875Z" fill="#978733"/>
<path d="M130.334 201.875H124.667V207.188H130.334V201.875Z" fill="#978833"/>
<path d="M136 201.875H130.333V207.188H136V201.875Z" fill="#988833"/>
<path d="M141.667 201.875H136V207.188H141.667V201.875Z" fill="#998933"/>
<path d="M147.334 201.875H141.667V207.188H147.334V201.875Z" fill="#9B8A33"/>
<path d="M153 201.875H147.333V207.188H153V201.875Z" fill="#9B8B33"/>
<path d="M158.667 201.875H153V207.188H158.667V201.875Z" fill="#9C8B33"/>
<path d="M164.334 201.875H158.667V207.188H164.334V201.875Z" fill="#9D8C33"/>
<path d="M170 201.875H164.333V207.188H170V201.875Z" fill="#9E8D33"/>
<path d="M175.667 201.875H170V207.188H175.667V201.875Z" fill="#9F8E33"/>
<path d="M181.334 201.875H175.667V207.188H181.334V201.875Z" fill="#9F8F33"/>
<path d="M187 201.875H181.333V207.188H187V201.875Z" fill="#A18F33"/>
<path d="M192.667 201.875H187V207.188H192.667V201.875Z" fill="#A29033"/>
<path d="M198.334 201.875H192.667V207.188H198.334V201.875Z" fill="#A39133"/>
<path d="M204 201.875H198.333V207.188H204V201.875Z" fill="#A39233"/>
<path d="M209.667 201.875H204V207.188H209.667V201.875Z" fill="#A49333"/>
<path d="M215.334 201.875H209.667V207.188H215.334V201.875Z" fill="#A59333"/>
<path d="M221 201.875H215.333V207.188H221V201.875Z" fill="#A69433"/>
<path d="M226.667 201.875H221V207.188H226.667V201.875Z" fill="#A79533"/>
<path d="M232.334 201.875H226.667V207.188H232.334V201.875Z" fill="#A89633"/>
<path d="M45.3337 207.188H39.667V212.5H45.3337V207.188Z" fill="#877A33"/>
<path d="M50.9997 207.188H45.333V212.5H50.9997V207.188Z" fill="#887B33"/>
<path d="M56.6667 207.188H51V212.5H56.6667V207.188Z" fill="#897B33"/>
<path d="M62.3337 207.188H56.667V212.5H62.3337V207.188Z" fill="#8A7C33"/>
<path d="M67.9997 207.188H62.333V212.5H67.9997V207.188Z" fill="#8B7D33"/>
<path d="M73.6667 207.188H68V212.5H73.6667V207.188Z" fill="#8C7E33"/>
<path d="M79.3337 207.188H73.667V212.5H79.3337V207.188Z" fill="#8D7F33"/>
<path d="M84.9997 207.188H79.333V212.5H84.9997V207.188Z" fill="#8E7F33"/>
<path d="M90.6667 207.188H85V212.5H90.6667V207.188Z" fill="#D9D9D9"/>
<path d="M96.3337 207.188H90.667V212.5H96.3337V207.188Z" fill="#D9D9D9"/>
<path d="M102 207.188H96.333V212.5H102V207.188Z" fill="#D9D9D9"/>
<path d="M107.667 207.188H102V212.5H107.667V207.188Z" fill="#D9D9D9"/>
<path d="M113.334 207.188H107.667V212.5H113.334V207.188Z" fill="#D9D9D9"/>
<path d="M119 207.188H113.333V212.5H119V207.188Z" fill="#D9D9D9"/>
<path d="M124.667 207.188H119V212.5H124.667V207.188Z" fill="#D9D9D9"/>
<path d="M130.334 207.188H124.667V212.5H130.334V207.188Z" fill="#D9D9D9"/>
<path d="M136 207.188H130.333V212.5H136V207.188Z" fill="#D9D9D9"/>
<path d="M141.667 207.188H136V212.5H141.667V207.188Z" fill="#D9D9D9"/>
<path d="M147.334 207.188H141.667V212.5H147.334V207.188Z" fill="#D9D9D9"/>
<path d="M153 207.188H147.333V212.5H153V207.188Z" fill="#D9D9D9"/>
<path d="M158.667 207.188H153V212.5H158.667V207.188Z" fill="#D9D9D9"/>
<path d="M164.334 207.188H158.667V212.5H164.334V207.188Z" fill="#D9D9D9"/>
<path d="M170 207.188H164.333V212.5H170V207.188Z" fill="#D9D9D9"/>
<path d="M175.667 207.188H170V212.5H175.667V207.188Z" fill="#D9D9D9"/>
<path d="M181.334 207.188H175.667V212.5H181.334V207.188Z" fill="#D9D9D9"/>
<path d="M187 207.188H181.333V212.5H187V207.188Z" fill="#D9D9D9"/>
<path d="M192.667 207.188H187V212.5H192.667V207.188Z" fill="#9F8E33"/>
<path d="M198.334 207.188H192.667V212.5H198.334V207.188Z" fill="#9F8F33"/>
<path d="M204 207.188H198.333V212.5H204V207.188Z" fill="#A08F33"/>
<path d="M209.667 207.188H204V212.5H209.667V207.188Z" fill="#A29033"/>
<path d="M215.334 207.188H209.667V212.5H215.334V207.188Z" fill="#A39133"/>
<path d="M221 207.188H215.333V212.5H221V207.188Z" fill="#A39233"/>
<path d="M226.667 207.188H221V212.5H226.667V207.188Z" fill="#A49333"/>
<path d="M232.334 207.188H226.667V212.5H232.334V207.188Z" fill="#A59333"/>
<path d="M39.6667 212.5H34V217.812H39.6667V212.5Z" fill="#837733"/>
<path d="M45.3337 212.5H39.667V217.812H45.3337V212.5Z" fill="#847733"/>
<path d="M50.9997 212.5H45.333V217.812H50.9997V212.5Z" fill="#867833"/>
<path d="M56.6667 212.5H51V217.812H56.6667V212.5Z" fill="#D9D9D9"/>
<path d="M62.3337 212.5H56.667V217.812H62.3337V212.5Z" fill="#D9D9D9"/>
<path d="M67.9997 212.5H62.333V217.812H67.9997V212.5Z" fill="#D9D9D9"/>
<path d="M73.6667 212.5H68V217.812H73.6667V212.5Z" fill="#D9D9D9"/>
<path d="M79.3337 212.5H73.667V217.812H79.3337V212.5Z" fill="#D9D9D9"/>
<path d="M84.9997 212.5H79.333V217.812H84.9997V212.5Z" fill="#D9D9D9"/>
<path d="M90.6667 212.5H85V217.812H90.6667V212.5Z" fill="#D9D9D9"/>
<path d="M96.3337 212.5H90.667V217.812H96.3337V212.5Z" fill="#D9D9D9"/>
<path d="M102 212.5H96.333V217.812H102V212.5Z" fill="#D9D9D9"/>
<path d="M107.667 212.5H102V217.812H107.667V212.5Z" fill="#D9D9D9"/>
<path d="M113.334 212.5H107.667V217.812H113.334V212.5Z" fill="#D9D9D9"/>
<path d="M119 212.5H113.333V217.812H119V212.5Z" fill="#D9D9D9"/>
<path d="M124.667 212.5H119V217.812H124.667V212.5Z" fill="#D9D9D9"/>
<path d="M130.334 212.5H124.667V217.812H130.334V212.5Z" fill="#D9D9D9"/>
<path d="M136 212.5H130.333V217.812H136V212.5Z" fill="#D9D9D9"/>
<path d="M141.667 212.5H136V217.812H141.667V212.5Z" fill="#D9D9D9"/>
<path d="M147.334 212.5H141.667V217.812H147.334V212.5Z" fill="#D9D9D9"/>
<path d="M153 212.5H147.333V217.812H153V212.5Z" fill="#D9D9D9"/>
<path d="M158.667 212.5H153V217.812H158.667V212.5Z" fill="#D9D9D9"/>
<path d="M164.334 212.5H158.667V217.812H164.334V212.5Z" fill="#D9D9D9"/>
<path d="M170 212.5H164.333V217.812H170V212.5Z" fill="#D9D9D9"/>
<path d="M175.667 212.5H170V217.812H175.667V212.5Z" fill="#D9D9D9"/>
<path d="M181.334 212.5H175.667V217.812H181.334V212.5Z" fill="#D9D9D9"/>
<path d="M187 212.5H181.333V217.812H187V212.5Z" fill="#D9D9D9"/>
<path d="M192.667 212.5H187V217.812H192.667V212.5Z" fill="#D9D9D9"/>
<path d="M198.334 212.5H192.667V217.812H198.334V212.5Z" fill="#D9D9D9"/>
<path d="M204 212.5H198.333V217.812H204V212.5Z" fill="#D9D9D9"/>
<path d="M209.667 212.5H204V217.812H209.667V212.5Z" fill="#D9D9D9"/>
<path d="M215.334 212.5H209.667V217.812H215.334V212.5Z" fill="#D9D9D9"/>
<path d="M221 212.5H215.333V217.812H221V212.5Z" fill="#D9D9D9"/>
<path d="M226.667 212.5H221V217.812H226.667V212.5Z" fill="#A29033"/>
<path d="M232.334 212.5H226.667V217.812H232.334V212.5Z" fill="#A39133"/>
<path d="M238 212.5H232.333V217.812H238V212.5Z" fill="#A39233"/>
<path d="M39.6667 217.812H34V223.125H39.6667V217.812Z" fill="#817533"/>
<path d="M45.3337 217.812H39.667V223.125H45.3337V217.812Z" fill="#D9D9D9"/>
<path d="M50.9997 217.812H45.333V223.125H50.9997V217.812Z" fill="#D9D9D9"/>
<path d="M56.6667 217.812H51V223.125H56.6667V217.812Z" fill="#D9D9D9"/>
<path d="M62.3337 217.812H56.667V223.125H62.3337V217.812Z" fill="#D9D9D9"/>
<path d="M67.9997 217.812H62.333V223.125H67.9997V217.812Z" fill="#D9D9D9"/>
<path d="M73.6667 217.812H68V223.125H73.6667V217.812Z" fill="#D9D9D9"/>
<path d="M79.3337 217.812H73.667V223.125H79.3337V217.812Z" fill="#D9D9D9"/>
<path d="M84.9997 217.812H79.333V223.125H84.9997V217.812Z" fill="#D9D9D9"/>
<path d="M90.6667 217.812H85V223.125H90.6667V217.812Z" fill="#D9D9D9"/>
<path d="M96.3337 217.812H90.667V223.125H96.3337V217.812Z" fill="#D9D9D9"/>
<path d="M102 217.812H96.333V223.125H102V217.812Z" fill="#D9D9D9"/>
<path d="M107.667 217.812H102V223.125H107.667V217.812Z" fill="#D9D9D9"/>
<path d="M113.334 217.812H107.667V223.125H113.334V217.812Z" fill="#D9D9D9"/>
<path d="M119 217.812H113.333V223.125H119V217.812Z" fill="#D9D9D9"/>
<path d="M124.667 217.812H119V223.125H124.667V217.812Z" fill="#D9D9D9"/>
<path d="M130.334 217.812H124.667V223.125H130.334V217.812Z" fill="#D9D9D9"/>
<path d="M136 217.812H130.333V223.125H136V217.812Z" fill="#D9D9D9"/>
<path d="M141.667 217.812H136V223.125H141.667V217.812Z" fill="#D9D9D9"/>
<path d="M147.334 217.812H141.667V223.125H147.334V217.812Z" fill="#D9D9D9"/>
<path d="M153 217.812H147.333V223.125H153V217.812Z" fill="#D9D9D9"/>
<path d="M158.667 217.812H153V223.125H158.667V217.812Z" fill="#D9D9D9"/>
<path d="M164.334 217.812H158.667V223.125H164.334V217.812Z" fill="#D9D9D9"/>
<path d="M170 217.812H164.333V223.125H170V217.812Z" fill="#D9D9D9"/>
<path d="M175.667 217.812H170V223.125H175.667V217.812Z" fill="#D9D9D9"/>
<path d="M181.334 217.812H175.667V223.125H181.334V217.812Z" fill="#D9D9D9"/>
<path d="M187 217.812H181.333V223.125H187V217.812Z" fill="#D9D9D9"/>
<path d="M192.667 217.812H187V223.125H192.667V217.812Z" fill="#D9D9D9"/>
<path d="M198.334 217.812H192.667V223.125H198.334V217.812Z" fill="#D9D9D9"/>
<path d="M204 217.812H198.333V223.125H204V217.812Z" fill="#D9D9D9"/>
<path d="M209.667 217.812H204V223.125H209.667V217.812Z" fill="#D9D9D9"/>
<path d="M215.334 217.812H209.667V223.125H215.334V217.812Z" fill="#D9D9D9"/>
<path d="M221 217.812H215.333V223.125H221V217.812Z" fill="#D9D9D9"/>
<path d="M226.667 217.812H221V223.125H226.667V217.812Z" fill="#D9D9D9"/>
<path d="M232.334 217.812H226.667V223.125H232.334V217.812Z" fill="#D9D9D9"/>
<path d="M238 217.812H232.333V223.125H238V217.812Z" fill="#A08F33"/>
<path d="M39.6667 223.125H34V228.438H39.6667V223.125Z" fill="#D9D9D9"/>
<path d="M45.3337 223.125H39.667V228.438H45.3337V223.125Z" fill="#D9D9D9"/>
<path d="M50.9997 223.125H45.333V228.438H50.9997V223.125Z" fill="#D9D9D9"/>
<path d="M56.6667 223.125H51V228.438H56.6667V223.125Z" fill="#D9D9D9"/>
<path d="M62.3337 223.125H56.667V228.438H62.3337V223.125Z" fill="#D9D9D9"/>
<path d="M67.9997 223.125H62.333V228.438H67.9997V223.125Z" fill="#D9D9D9"/>
<path d="M73.6667 223.125H68V228.438H73.6667V223.125Z" fill="#D9D9D9"/>
<path d="M79.3337 223.125H73.667V228.438H79.3337V223.125Z" fill="#D9D9D9"/>
<path d="M84.9997 223.125H79.333V228.438H84.9997V223.125Z" fill="#D9D9D9"/>
<path d="M90.6667 223.125H85V228.438H90.6667V223.125Z" fill="#D9D9D9"/>
<path d="M96.3337 223.125H90.667V228.438H96.3337V223.125Z" fill="#D9D9D9"/>
<path d="M102 223.125H96.333V228.438H102V223.125Z" fill="#D9D9D9"/>
<path d="M107.667 223.125H102V228.438H107.667V223.125Z" fill="#D9D9D9"/>
<path d="M113.334 223.125H107.667V228.438H113.334V223.125Z" fill="#D9D9D9"/>
<path d="M119 223.125H113.333V228.438H119V223.125Z" fill="#D9D9D9"/>
<path d="M124.667 223.125H119V228.438H124.667V223.125Z" fill="#D9D9D9"/>
<path d="M130.334 223.125H124.667V228.438H130.334V223.125Z" fill="#D9D9D9"/>
<path d="M136 223.125H130.333V228.438H136V223.125Z" fill="#D9D9D9"/>
<path d="M141.667 223.125H136V228.438H141.667V223.125Z" fill="#D9D9D9"/>
<path d="M147.334 223.125H141.667V228.438H147.334V223.125Z" fill="#D9D9D9"/>
<path d="M153 223.125H147.333V228.438H153V223.125Z" fill="#D9D9D9"/>
<path d="M158.667 223.125H153V228.438H158.667V223.125Z" fill="#D9D9D9"/>
<path d="M164.334 223.125H158.667V228.438H164.334V223.125Z" fill="#D9D9D9"/>
<path d="M170 223.125H164.333V228.438H170V223.125Z" fill="#D9D9D9"/>
<path d="M175.667 223.125H170V228.438H175.667V223.125Z" fill="#D9D9D9"/>
<path d="M181.334 223.125H175.667V228.438H181.334V223.125Z" fill="#D9D9D9"/>
<path d="M187 223.125H181.333V228.438H187V223.125Z" fill="#D9D9D9"/>
<path d="M192.667 223.125H187V228.438H192.667V223.125Z" fill="#D9D9D9"/>
<path d="M198.334 223.125H192.667V228.438H198.334V223.125Z" fill="#D9D9D9"/>
<path d="M204 223.125H198.333V228.438H204V223.125Z" fill="#D9D9D9"/>
<path d="M209.667 223.125H204V228.438H209.667V223.125Z" fill="#D9D9D9"/>
<path d="M215.334 223.125H209.667V228.438H215.334V223.125Z" fill="#D9D9D9"/>
<path d="M221 223.125H215.333V228.438H221V223.125Z" fill="#D9D9D9"/>
<path d="M226.667 223.125H221V228.438H226.667V223.125Z" fill="#D9D9D9"/>
<path d="M232.334 223.125H226.667V228.438H232.334V223.125Z" fill="#D9D9D9"/>
<path d="M238 223.125H232.333V228.438H238V223.125Z" fill="#D9D9D9"/>
<path d="M45.3337 228.438H39.667V233.75H45.3337V228.438Z" fill="#D9D9D9"/>
<path d="M50.9997 228.438H45.333V233.75H50.9997V228.438Z" fill="#D9D9D9"/>
<path d="M56.6667 228.438H51V233.75H56.6667V228.438Z" fill="#D9D9D9"/>
<path d="M62.3337 228.438H56.667V233.75H62.3337V228.438Z" fill="#D9D9D9"/>
<path d="M67.9997 228.438H62.333V233.75H67.9997V228.438Z" fill="#D9D9D9"/>
<path d="M73.6667 228.438H68V233.75H73.6667V228.438Z" fill="#D9D9D9"/>
<path d="M79.3337 228.438H73.667V233.75H79.3337V228.438Z" fill="#D9D9D9"/>
<path d="M84.9997 228.438H79.333V233.75H84.9997V228.438Z" fill="#D9D9D9"/>
<path d="M90.6667 228.438H85V233.75H90.6667V228.438Z" fill="#D9D9D9"/>
<path d="M96.3337 228.438H90.667V233.75H96.3337V228.438Z" fill="#D9D9D9"/>
<path d="M102 228.438H96.333V233.75H102V228.438Z" fill="#D9D9D9"/>
<path d="M107.667 228.438H102V233.75H107.667V228.438Z" fill="#D9D9D9"/>
<path d="M113.334 228.438H107.667V233.75H113.334V228.438Z" fill="#D9D9D9"/>
<path d="M119 228.438H113.333V233.75H119V228.438Z" fill="#D9D9D9"/>
<path d="M124.667 228.438H119V233.75H124.667V228.438Z" fill="#D9D9D9"/>
<path d="M130.334 228.438H124.667V233.75H130.334V228.438Z" fill="#D9D9D9"/>
<path d="M136 228.438H130.333V233.75H136V228.438Z" fill="#D9D9D9"/>
<path d="M141.667 228.438H136V233.75H141.667V228.438Z" fill="#D9D9D9"/>
<path d="M147.334 228.438H141.667V233.75H147.334V228.438Z" fill="#D9D9D9"/>
<path d="M153 228.438H147.333V233.75H153V228.438Z" fill="#D9D9D9"/>
<path d="M158.667 228.438H153V233.75H158.667V228.438Z" fill="#D9D9D9"/>
<path d="M164.334 228.438H158.667V233.75H164.334V228.438Z" fill="#D9D9D9"/>
<path d="M170 228.438H164.333V233.75H170V228.438Z" fill="#D9D9D9"/>
<path d="M175.667 228.438H170V233.75H175.667V228.438Z" fill="#D9D9D9"/>
<path d="M181.334 228.438H175.667V233.75H181.334V228.438Z" fill="#D9D9D9"/>
<path d="M187 228.438H181.333V233.75H187V228.438Z" fill="#D9D9D9"/>
<path d="M192.667 228.438H187V233.75H192.667V228.438Z" fill="#D9D9D9"/>
<path d="M198.334 228.438H192.667V233.75H198.334V228.438Z" fill="#D9D9D9"/>
<path d="M204 228.438H198.333V233.75H204V228.438Z" fill="#D9D9D9"/>
<path d="M209.667 228.438H204V233.75H209.667V228.438Z" fill="#D9D9D9"/>
<path d="M215.334 228.438H209.667V233.75H215.334V228.438Z" fill="#D9D9D9"/>
<path d="M221 228.438H215.333V233.75H221V228.438Z" fill="#D9D9D9"/>
<path d="M226.667 228.438H221V233.75H226.667V228.438Z" fill="#D9D9D9"/>
<path d="M232.334 228.438H226.667V233.75H232.334V228.438Z" fill="#D9D9D9"/>
<path d="M56.6667 233.75H51V239.062H56.6667V233.75Z" fill="#D9D9D9"/>
<path d="M62.3337 233.75H56.667V239.062H62.3337V233.75Z" fill="#D9D9D9"/>
<path d="M67.9997 233.75H62.333V239.062H67.9997V233.75Z" fill="#D9D9D9"/>
<path d="M73.6667 233.75H68V239.062H73.6667V233.75Z" fill="#D9D9D9"/>
<path d="M79.3337 233.75H73.667V239.062H79.3337V233.75Z" fill="#D9D9D9"/>
<path d="M84.9997 233.75H79.333V239.062H84.9997V233.75Z" fill="#D9D9D9"/>
<path d="M90.6667 233.75H85V239.062H90.6667V233.75Z" fill="#D9D9D9"/>
<path d="M96.3337 233.75H90.667V239.062H96.3337V233.75Z" fill="#D9D9D9"/>
<path d="M102 233.75H96.333V239.062H102V233.75Z" fill="#D9D9D9"/>
<path d="M107.667 233.75H102V239.062H107.667V233.75Z" fill="#D9D9D9"/>
<path d="M113.334 233.75H107.667V239.062H113.334V233.75Z" fill="#D9D9D9"/>
<path d="M119 233.75H113.333V239.062H119V233.75Z" fill="#D9D9D9"/>
<path d="M124.667 233.75H119V239.062H124.667V233.75Z" fill="#D9D9D9"/>
<path d="M130.334 233.75H124.667V239.062H130.334V233.75Z" fill="#D9D9D9"/>
<path d="M136 233.75H130.333V239.062H136V233.75Z" fill="#D9D9D9"/>
<path d="M141.667 233.75H136V239.062H141.667V233.75Z" fill="#D9D9D9"/>
<path d="M147.334 233.75H141.667V239.062H147.334V233.75Z" fill="#D9D9D9"/>
<path d="M153 233.75H147.333V239.062H153V233.75Z" fill="#D9D9D9"/>
<path d="M158.667 233.75H153V239.062H158.667V233.75Z" fill="#D9D9D9"/>
<path d="M164.334 233.75H158.667V239.062H164.334V233.75Z" fill="#D9D9D9"/>
<path d="M170 233.75H164.333V239.062H170V233.75Z" fill="#D9D9D9"/>
<path d="M175.667 233.75H170V239.062H175.667V233.75Z" fill="#D9D9D9"/>
<path d="M181.334 233.75H175.667V239.062H181.334V233.75Z" fill="#D9D9D9"/>
<path d="M187 233.75H181.333V239.062H187V233.75Z" fill="#D9D9D9"/>
<path d="M192.667 233.75H187V239.062H192.667V233.75Z" fill="#D9D9D9"/>
<path d="M198.334 233.75H192.667V239.062H198.334V233.75Z" fill="#D9D9D9"/>
<path d="M204 233.75H198.333V239.062H204V233.75Z" fill="#D9D9D9"/>
<path d="M209.667 233.75H204V239.062H209.667V233.75Z" fill="#D9D9D9"/>
<path d="M215.334 233.75H209.667V239.062H215.334V233.75Z" fill="#D9D9D9"/>
<path d="M221 233.75H215.333V239.062H221V233.75Z" fill="#D9D9D9"/>
<path d="M90.6667 239.062H85V244.375H90.6667V239.062Z" fill="#D9D9D9"/>
<path d="M96.3337 239.062H90.667V244.375H96.3337V239.062Z" fill="#D9D9D9"/>
<path d="M102 239.062H96.333V244.375H102V239.062Z" fill="#D9D9D9"/>
<path d="M107.667 239.062H102V244.375H107.667V239.062Z" fill="#D9D9D9"/>
<path d="M113.334 239.062H107.667V244.375H113.334V239.062Z" fill="#D9D9D9"/>
<path d="M119 239.062H113.333V244.375H119V239.062Z" fill="#D9D9D9"/>
<path d="M124.667 239.062H119V244.375H124.667V239.062Z" fill="#D9D9D9"/>
<path d="M130.334 239.062H124.667V244.375H130.334V239.062Z" fill="#D9D9D9"/>
<path d="M136 239.062H130.333V244.375H136V239.062Z" fill="#D9D9D9"/>
<path d="M141.667 239.062H136V244.375H141.667V239.062Z" fill="#D9D9D9"/>
<path d="M147.334 239.062H141.667V244.375H147.334V239.062Z" fill="#D9D9D9"/>
<path d="M153 239.062H147.333V244.375H153V239.062Z" fill="#D9D9D9"/>
<path d="M158.667 239.062H153V244.375H158.667V239.062Z" fill="#D9D9D9"/>
<path d="M164.334 239.062H158.667V244.375H164.334V239.062Z" fill="#D9D9D9"/>
<path d="M170 239.062H164.333V244.375H170V239.062Z" fill="#D9D9D9"/>
<path d="M175.667 239.062H170V244.375H175.667V239.062Z" fill="#D9D9D9"/>
<path d="M181.334 239.062H175.667V244.375H181.334V239.062Z" fill="#D9D9D9"/>
<path d="M187 239.062H181.333V244.375H187V239.062Z" fill="#D9D9D9"/>
</svg>
