<?xml version="1.0" encoding="UTF-8" ?>
<svg version="1.1" width="48" height="48" xmlns="http://www.w3.org/2000/svg" shape-rendering="crispEdges">
<rect x="21" y="6" width="1" height="1" fill="#000000" />
<rect x="22" y="6" width="1" height="1" fill="#000000" />
<rect x="23" y="6" width="1" height="1" fill="#000000" />
<rect x="24" y="6" width="1" height="1" fill="#000000" />
<rect x="25" y="6" width="1" height="1" fill="#000000" />
<rect x="26" y="6" width="1" height="1" fill="#000000" />
<rect x="27" y="6" width="1" height="1" fill="#000000" />
<rect x="19" y="7" width="1" height="1" fill="#000000" />
<rect x="20" y="7" width="1" height="1" fill="#000000" />
<rect x="21" y="7" width="1" height="1" fill="#151517" />
<rect x="22" y="7" width="1" height="1" fill="#151517" />
<rect x="23" y="7" width="1" height="1" fill="#151517" />
<rect x="24" y="7" width="1" height="1" fill="#151517" />
<rect x="25" y="7" width="1" height="1" fill="#151517" />
<rect x="26" y="7" width="1" height="1" fill="#151517" />
<rect x="27" y="7" width="1" height="1" fill="#151517" />
<rect x="28" y="7" width="1" height="1" fill="#000000" />
<rect x="29" y="7" width="1" height="1" fill="#000000" />
<rect x="18" y="8" width="1" height="1" fill="#000000" />
<rect x="19" y="8" width="1" height="1" fill="#151517" />
<rect x="20" y="8" width="1" height="1" fill="#151517" />
<rect x="21" y="8" width="1" height="1" fill="#151517" />
<rect x="22" y="8" width="1" height="1" fill="#151517" />
<rect x="23" y="8" width="1" height="1" fill="#151517" />
<rect x="24" y="8" width="1" height="1" fill="#151517" />
<rect x="25" y="8" width="1" height="1" fill="#151517" />
<rect x="26" y="8" width="1" height="1" fill="#151517" />
<rect x="27" y="8" width="1" height="1" fill="#151517" />
<rect x="28" y="8" width="1" height="1" fill="#2A2A2F" />
<rect x="29" y="8" width="1" height="1" fill="#2A2A2F" />
<rect x="30" y="8" width="1" height="1" fill="#000000" />
<rect x="17" y="9" width="1" height="1" fill="#000000" />
<rect x="18" y="9" width="1" height="1" fill="#151517" />
<rect x="19" y="9" width="1" height="1" fill="#151517" />
<rect x="20" y="9" width="1" height="1" fill="#151517" />
<rect x="21" y="9" width="1" height="1" fill="#151517" />
<rect x="22" y="9" width="1" height="1" fill="#151517" />
<rect x="23" y="9" width="1" height="1" fill="#151517" />
<rect x="24" y="9" width="1" height="1" fill="#151517" />
<rect x="25" y="9" width="1" height="1" fill="#151517" />
<rect x="26" y="9" width="1" height="1" fill="#151517" />
<rect x="27" y="9" width="1" height="1" fill="#151517" />
<rect x="28" y="9" width="1" height="1" fill="#151517" />
<rect x="29" y="9" width="1" height="1" fill="#2A2A2F" />
<rect x="30" y="9" width="1" height="1" fill="#2A2A2F" />
<rect x="31" y="9" width="1" height="1" fill="#000000" />
<rect x="32" y="9" width="1" height="1" fill="#000000" opacity="0.058824" />
<rect x="17" y="10" width="1" height="1" fill="#000000" />
<rect x="18" y="10" width="1" height="1" fill="#151517" />
<rect x="19" y="10" width="1" height="1" fill="#151517" />
<rect x="20" y="10" width="1" height="1" fill="#151517" />
<rect x="21" y="10" width="1" height="1" fill="#000000" />
<rect x="22" y="10" width="1" height="1" fill="#000000" />
<rect x="23" y="10" width="1" height="1" fill="#000000" />
<rect x="24" y="10" width="1" height="1" fill="#000000" />
<rect x="25" y="10" width="1" height="1" fill="#000000" />
<rect x="26" y="10" width="1" height="1" fill="#000000" />
<rect x="27" y="10" width="1" height="1" fill="#000000" />
<rect x="28" y="10" width="1" height="1" fill="#151517" />
<rect x="29" y="10" width="1" height="1" fill="#151517" />
<rect x="30" y="10" width="1" height="1" fill="#2A2A2F" />
<rect x="31" y="10" width="1" height="1" fill="#2A2A2F" />
<rect x="32" y="10" width="1" height="1" fill="#000000" />
<rect x="33" y="10" width="1" height="1" fill="#000000" opacity="0.047059" />
<rect x="12" y="11" width="1" height="1" fill="#000000" opacity="0.007843" />
<rect x="13" y="11" width="1" height="1" fill="#000000" opacity="0.003922" />
<rect x="17" y="11" width="1" height="1" fill="#000000" />
<rect x="18" y="11" width="1" height="1" fill="#151517" />
<rect x="19" y="11" width="1" height="1" fill="#151517" />
<rect x="20" y="11" width="1" height="1" fill="#000000" />
<rect x="21" y="11" width="1" height="1" fill="#000000" />
<rect x="22" y="11" width="1" height="1" fill="#E8D3BC" />
<rect x="23" y="11" width="1" height="1" fill="#E8D3BC" />
<rect x="24" y="11" width="1" height="1" fill="#E8D3BC" />
<rect x="25" y="11" width="1" height="1" fill="#C6A682" />
<rect x="26" y="11" width="1" height="1" fill="#C6A682" />
<rect x="27" y="11" width="1" height="1" fill="#C6A682" />
<rect x="28" y="11" width="1" height="1" fill="#000000" />
<rect x="29" y="11" width="1" height="1" fill="#151517" />
<rect x="30" y="11" width="1" height="1" fill="#151517" />
<rect x="31" y="11" width="1" height="1" fill="#2A2A2F" />
<rect x="32" y="11" width="1" height="1" fill="#000000" />
<rect x="33" y="11" width="1" height="1" fill="#000000" opacity="0.027451" />
<rect x="12" y="12" width="1" height="1" fill="#000000" opacity="0.007843" />
<rect x="17" y="12" width="1" height="1" fill="#000000" />
<rect x="18" y="12" width="1" height="1" fill="#000000" />
<rect x="19" y="12" width="1" height="1" fill="#000000" />
<rect x="20" y="12" width="1" height="1" fill="#E8D3BC" />
<rect x="21" y="12" width="1" height="1" fill="#E8D3BC" />
<rect x="22" y="12" width="1" height="1" fill="#E8D3BC" />
<rect x="23" y="12" width="1" height="1" fill="#E8D3BC" />
<rect x="24" y="12" width="1" height="1" fill="#E8D3BC" />
<rect x="25" y="12" width="1" height="1" fill="#E8D3BC" />
<rect x="26" y="12" width="1" height="1" fill="#E8D3BC" />
<rect x="27" y="12" width="1" height="1" fill="#C6A682" />
<rect x="28" y="12" width="1" height="1" fill="#C6A682" />
<rect x="29" y="12" width="1" height="1" fill="#000000" />
<rect x="30" y="12" width="1" height="1" fill="#151517" />
<rect x="31" y="12" width="1" height="1" fill="#151517" />
<rect x="32" y="12" width="1" height="1" fill="#000000" />
<rect x="6" y="13" width="1" height="1" fill="#CC1A00" opacity="0.039216" />
<rect x="7" y="13" width="1" height="1" fill="#C01A1A" opacity="0.494118" />
<rect x="8" y="13" width="1" height="1" fill="#D01B1F" />
<rect x="9" y="13" width="1" height="1" fill="#DA2321" opacity="0.968627" />
<rect x="10" y="13" width="1" height="1" fill="#E12522" opacity="0.956863" />
<rect x="11" y="13" width="1" height="1" fill="#000000" opacity="0.003922" />
<rect x="12" y="13" width="1" height="1" fill="#000000" opacity="0.011765" />
<rect x="15" y="13" width="1" height="1" fill="#000000" opacity="0.003922" />
<rect x="17" y="13" width="1" height="1" fill="#000000" />
<rect x="18" y="13" width="1" height="1" fill="#000000" opacity="0.956863" />
<rect x="19" y="13" width="1" height="1" fill="#E8D3BC" />
<rect x="20" y="13" width="1" height="1" fill="#E8D3BC" />
<rect x="21" y="13" width="1" height="1" fill="#E8D3BC" />
<rect x="22" y="13" width="1" height="1" fill="#E8D3BC" />
<rect x="23" y="13" width="1" height="1" fill="#E8D3BC" />
<rect x="24" y="13" width="1" height="1" fill="#E8D3BC" />
<rect x="25" y="13" width="1" height="1" fill="#E8D3BC" />
<rect x="26" y="13" width="1" height="1" fill="#E8D3BC" />
<rect x="27" y="13" width="1" height="1" fill="#E8D3BC" />
<rect x="28" y="13" width="1" height="1" fill="#C6A682" />
<rect x="29" y="13" width="1" height="1" fill="#000000" />
<rect x="30" y="13" width="1" height="1" fill="#151517" />
<rect x="31" y="13" width="1" height="1" fill="#151517" />
<rect x="32" y="13" width="1" height="1" fill="#000000" />
<rect x="6" y="14" width="1" height="1" fill="#CB1018" opacity="0.615686" />
<rect x="7" y="14" width="1" height="1" fill="#D7211F" />
<rect x="8" y="14" width="1" height="1" fill="#E02723" />
<rect x="9" y="14" width="1" height="1" fill="#DA2521" />
<rect x="10" y="14" width="1" height="1" fill="#DD2622" />
<rect x="11" y="14" width="1" height="1" fill="#920C18" opacity="0.082353" />
<rect x="12" y="14" width="1" height="1" fill="#000000" opacity="0.007843" />
<rect x="15" y="14" width="1" height="1" fill="#000000" opacity="0.003922" />
<rect x="16" y="14" width="1" height="1" fill="#000000" opacity="0.003922" />
<rect x="17" y="14" width="1" height="1" fill="#000000" />
<rect x="18" y="14" width="1" height="1" fill="#000000" />
<rect x="19" y="14" width="1" height="1" fill="#000000" />
<rect x="20" y="14" width="1" height="1" fill="#000000" />
<rect x="21" y="14" width="1" height="1" fill="#000000" />
<rect x="22" y="14" width="1" height="1" fill="#000000" />
<rect x="23" y="14" width="1" height="1" fill="#000000" opacity="0.996078" />
<rect x="24" y="14" width="1" height="1" fill="#000000" />
<rect x="25" y="14" width="1" height="1" fill="#000000" />
<rect x="26" y="14" width="1" height="1" fill="#000000" />
<rect x="27" y="14" width="1" height="1" fill="#000000" />
<rect x="28" y="14" width="1" height="1" fill="#000000" />
<rect x="29" y="14" width="1" height="1" fill="#000000" />
<rect x="30" y="14" width="1" height="1" fill="#000000" />
<rect x="31" y="14" width="1" height="1" fill="#000000" />
<rect x="32" y="14" width="1" height="1" fill="#000000" />
<rect x="6" y="15" width="1" height="1" fill="#DE2421" opacity="0.968627" />
<rect x="7" y="15" width="1" height="1" fill="#CE1E1F" />
<rect x="8" y="15" width="1" height="1" fill="#C0191B" />
<rect x="9" y="15" width="1" height="1" fill="#C0191B" />
<rect x="10" y="15" width="1" height="1" fill="#E12823" />
<rect x="11" y="15" width="1" height="1" fill="#B11519" opacity="0.713725" />
<rect x="12" y="15" width="1" height="1" fill="#000000" opacity="0.003922" />
<rect x="14" y="15" width="1" height="1" fill="#000000" opacity="0.007843" />
<rect x="15" y="15" width="1" height="1" fill="#000000" opacity="0.003922" />
<rect x="17" y="15" width="1" height="1" fill="#E8D3BC" />
<rect x="18" y="15" width="1" height="1" fill="#000000" />
<rect x="19" y="15" width="1" height="1" fill="#151517" />
<rect x="20" y="15" width="1" height="1" fill="#151517" />
<rect x="21" y="15" width="1" height="1" fill="#FFFFFF" />
<rect x="22" y="15" width="1" height="1" fill="#000000" />
<rect x="23" y="15" width="1" height="1" fill="#C6A682" />
<rect x="24" y="15" width="1" height="1" fill="#000000" />
<rect x="25" y="15" width="1" height="1" fill="#151517" />
<rect x="26" y="15" width="1" height="1" fill="#151517" />
<rect x="27" y="15" width="1" height="1" fill="#FFFFFF" />
<rect x="28" y="15" width="1" height="1" fill="#000000" />
<rect x="29" y="15" width="1" height="1" fill="#C6A682" />
<rect x="30" y="15" width="1" height="1" fill="#000000" />
<rect x="31" y="15" width="1" height="1" fill="#C6A682" />
<rect x="32" y="15" width="1" height="1" fill="#C6A682" />
<rect x="33" y="15" width="1" height="1" fill="#000000" />
<rect x="6" y="16" width="1" height="1" fill="#DD2422" opacity="0.996078" />
<rect x="7" y="16" width="1" height="1" fill="#DB2523" />
<rect x="8" y="16" width="1" height="1" fill="#DE2622" />
<rect x="9" y="16" width="1" height="1" fill="#C0191B" />
<rect x="10" y="16" width="1" height="1" fill="#C0191B" />
<rect x="11" y="16" width="1" height="1" fill="#BA131A" opacity="0.980392" />
<rect x="14" y="16" width="1" height="1" fill="#000000" opacity="0.003922" />
<rect x="15" y="16" width="1" height="1" fill="#000000" opacity="0.003922" />
<rect x="17" y="16" width="1" height="1" fill="#E8D3BC" />
<rect x="18" y="16" width="1" height="1" fill="#000000" opacity="0.976471" />
<rect x="19" y="16" width="1" height="1" fill="#151517" />
<rect x="20" y="16" width="1" height="1" fill="#151517" />
<rect x="21" y="16" width="1" height="1" fill="#151517" />
<rect x="22" y="16" width="1" height="1" fill="#000000" />
<rect x="23" y="16" width="1" height="1" fill="#E8D3BC" />
<rect x="24" y="16" width="1" height="1" fill="#C6A682" />
<rect x="25" y="16" width="1" height="1" fill="#000000" opacity="0.956863" />
<rect x="26" y="16" width="1" height="1" fill="#151517" />
<rect x="27" y="16" width="1" height="1" fill="#151517" />
<rect x="28" y="16" width="1" height="1" fill="#000000" />
<rect x="29" y="16" width="1" height="1" fill="#E8D3BC" />
<rect x="30" y="16" width="1" height="1" fill="#000000" />
<rect x="31" y="16" width="1" height="1" fill="#C6A682" />
<rect x="32" y="16" width="1" height="1" fill="#C6A682" />
<rect x="33" y="16" width="1" height="1" fill="#000000" />
<rect x="5" y="17" width="1" height="1" fill="#B70A18" opacity="0.290196" />
<rect x="6" y="17" width="1" height="1" fill="#E12823" />
<rect x="7" y="17" width="1" height="1" fill="#D82422" />
<rect x="8" y="17" width="1" height="1" fill="#C0191B" />
<rect x="9" y="17" width="1" height="1" fill="#C0191B" />
<rect x="10" y="17" width="1" height="1" fill="#DE2622" />
<rect x="11" y="17" width="1" height="1" fill="#BC191A" opacity="0.949020" />
<rect x="14" y="17" width="1" height="1" fill="#000000" opacity="0.003922" />
<rect x="15" y="17" width="1" height="1" fill="#000000" opacity="0.007843" />
<rect x="16" y="17" width="1" height="1" fill="#000000" opacity="0.027451" />
<rect x="17" y="17" width="1" height="1" fill="#000000" />
<rect x="18" y="17" width="1" height="1" fill="#E8D3BC" />
<rect x="19" y="17" width="1" height="1" fill="#000000" />
<rect x="20" y="17" width="1" height="1" fill="#000000" />
<rect x="21" y="17" width="1" height="1" fill="#000000" />
<rect x="22" y="17" width="1" height="1" fill="#E8D3BC" />
<rect x="23" y="17" width="1" height="1" fill="#E8D3BC" />
<rect x="24" y="17" width="1" height="1" fill="#E8D3BC" />
<rect x="25" y="17" width="1" height="1" fill="#E8D3BC" />
<rect x="26" y="17" width="1" height="1" fill="#000000" />
<rect x="27" y="17" width="1" height="1" fill="#000000" />
<rect x="28" y="17" width="1" height="1" fill="#E8D3BC" />
<rect x="29" y="17" width="1" height="1" fill="#E8D3BC" />
<rect x="30" y="17" width="1" height="1" fill="#E8D3BC" />
<rect x="31" y="17" width="1" height="1" fill="#C6A682" />
<rect x="32" y="17" width="1" height="1" fill="#C6A682" />
<rect x="33" y="17" width="1" height="1" fill="#000000" />
<rect x="5" y="18" width="1" height="1" fill="#C4181D" opacity="0.941176" />
<rect x="6" y="18" width="1" height="1" fill="#C0191B" />
<rect x="7" y="18" width="1" height="1" fill="#C0191B" />
<rect x="8" y="18" width="1" height="1" fill="#D02120" />
<rect x="9" y="18" width="1" height="1" fill="#C0191B" />
<rect x="10" y="18" width="1" height="1" fill="#CB1F1E" />
<rect x="11" y="18" width="1" height="1" fill="#BD191D" opacity="0.945098" />
<rect x="14" y="18" width="1" height="1" fill="#000000" opacity="0.003922" />
<rect x="17" y="18" width="1" height="1" fill="#000000" />
<rect x="18" y="18" width="1" height="1" fill="#E8D3BC" />
<rect x="19" y="18" width="1" height="1" fill="#E8D3BC" />
<rect x="20" y="18" width="1" height="1" fill="#E8D3BC" />
<rect x="21" y="18" width="1" height="1" fill="#E8D3BC" />
<rect x="22" y="18" width="1" height="1" fill="#E8D3BC" />
<rect x="23" y="18" width="1" height="1" fill="#E8D3BC" />
<rect x="24" y="18" width="1" height="1" fill="#E8D3BC" />
<rect x="25" y="18" width="1" height="1" fill="#E8D3BC" />
<rect x="26" y="18" width="1" height="1" fill="#E8D3BC" />
<rect x="27" y="18" width="1" height="1" fill="#E8D3BC" />
<rect x="28" y="18" width="1" height="1" fill="#E8D3BC" />
<rect x="29" y="18" width="1" height="1" fill="#E8D3BC" />
<rect x="30" y="18" width="1" height="1" fill="#E8D3BC" />
<rect x="31" y="18" width="1" height="1" fill="#C6A682" />
<rect x="32" y="18" width="1" height="1" fill="#000000" />
<rect x="5" y="19" width="1" height="1" fill="#C31A1D" opacity="0.984314" />
<rect x="6" y="19" width="1" height="1" fill="#C3191C" />
<rect x="7" y="19" width="1" height="1" fill="#C0191B" />
<rect x="8" y="19" width="1" height="1" fill="#D92421" />
<rect x="9" y="19" width="1" height="1" fill="#CA1D1E" />
<rect x="10" y="19" width="1" height="1" fill="#D42121" />
<rect x="11" y="19" width="1" height="1" fill="#B7161A" opacity="0.945098" />
<rect x="14" y="19" width="1" height="1" fill="#000000" opacity="0.011765" />
<rect x="17" y="19" width="1" height="1" fill="#000000" />
<rect x="18" y="19" width="1" height="1" fill="#E8D3BC" />
<rect x="19" y="19" width="1" height="1" fill="#E8D3BC" />
<rect x="20" y="19" width="1" height="1" fill="#E8D3BC" />
<rect x="21" y="19" width="1" height="1" fill="#000000" />
<rect x="22" y="19" width="1" height="1" fill="#E8D3BC" />
<rect x="23" y="19" width="1" height="1" fill="#E8D3BC" />
<rect x="24" y="19" width="1" height="1" fill="#E8D3BC" />
<rect x="25" y="19" width="1" height="1" fill="#E8D3BC" />
<rect x="26" y="19" width="1" height="1" fill="#000000" />
<rect x="27" y="19" width="1" height="1" fill="#E8D3BC" />
<rect x="28" y="19" width="1" height="1" fill="#E8D3BC" />
<rect x="29" y="19" width="1" height="1" fill="#E8D3BC" />
<rect x="30" y="19" width="1" height="1" fill="#C6A682" />
<rect x="31" y="19" width="1" height="1" fill="#000000" />
<rect x="5" y="20" width="1" height="1" fill="#BF0000" opacity="0.015686" />
<rect x="6" y="20" width="1" height="1" fill="#C4191C" opacity="0.996078" />
<rect x="7" y="20" width="1" height="1" fill="#D92421" />
<rect x="8" y="20" width="1" height="1" fill="#C0191B" />
<rect x="9" y="20" width="1" height="1" fill="#C0191B" />
<rect x="10" y="20" width="1" height="1" fill="#CC1E1E" />
<rect x="11" y="20" width="1" height="1" fill="#9B0E14" opacity="0.737255" />
<rect x="17" y="20" width="1" height="1" fill="#000000" />
<rect x="18" y="20" width="1" height="1" fill="#E8D3BC" />
<rect x="19" y="20" width="1" height="1" fill="#E8D3BC" />
<rect x="20" y="20" width="1" height="1" fill="#E8D3BC" />
<rect x="21" y="20" width="1" height="1" fill="#E8D3BC" />
<rect x="22" y="20" width="1" height="1" fill="#000000" />
<rect x="23" y="20" width="1" height="1" fill="#000000" />
<rect x="24" y="20" width="1" height="1" fill="#000000" />
<rect x="25" y="20" width="1" height="1" fill="#000000" />
<rect x="26" y="20" width="1" height="1" fill="#E8D3BC" />
<rect x="27" y="20" width="1" height="1" fill="#E8D3BC" />
<rect x="28" y="20" width="1" height="1" fill="#E8D3BC" />
<rect x="29" y="20" width="1" height="1" fill="#C6A682" />
<rect x="30" y="20" width="1" height="1" fill="#C6A682" />
<rect x="31" y="20" width="1" height="1" fill="#000000" />
<rect x="6" y="21" width="1" height="1" fill="#8F0010" opacity="0.627451" />
<rect x="7" y="21" width="1" height="1" fill="#A70D17" />
<rect x="8" y="21" width="1" height="1" fill="#DE2722" />
<rect x="9" y="21" width="1" height="1" fill="#D12020" />
<rect x="10" y="21" width="1" height="1" fill="#D22220" />
<rect x="11" y="21" width="1" height="1" fill="#800000" opacity="0.290196" />
<rect x="18" y="21" width="1" height="1" fill="#000000" />
<rect x="19" y="21" width="1" height="1" fill="#E8D3BC" />
<rect x="20" y="21" width="1" height="1" fill="#E8D3BC" />
<rect x="21" y="21" width="1" height="1" fill="#E8D3BC" />
<rect x="22" y="21" width="1" height="1" fill="#E8D3BC" />
<rect x="23" y="21" width="1" height="1" fill="#E8D3BC" />
<rect x="24" y="21" width="1" height="1" fill="#E8D3BC" />
<rect x="25" y="21" width="1" height="1" fill="#E8D3BC" />
<rect x="26" y="21" width="1" height="1" fill="#E8D3BC" />
<rect x="27" y="21" width="1" height="1" fill="#E8D3BC" />
<rect x="28" y="21" width="1" height="1" fill="#C6A682" />
<rect x="29" y="21" width="1" height="1" fill="#C6A682" />
<rect x="30" y="21" width="1" height="1" fill="#000000" />
<rect x="6" y="22" width="1" height="1" fill="#5D0017" opacity="0.043137" />
<rect x="7" y="22" width="1" height="1" fill="#960014" opacity="0.552941" />
<rect x="8" y="22" width="1" height="1" fill="#B71618" />
<rect x="9" y="22" width="1" height="1" fill="#BA161B" />
<rect x="10" y="22" width="1" height="1" fill="#B50014" />
<rect x="11" y="22" width="1" height="1" fill="#349B77" />
<rect x="18" y="22" width="1" height="1" fill="#000000" />
<rect x="19" y="22" width="1" height="1" fill="#000000" />
<rect x="20" y="22" width="1" height="1" fill="#000000" />
<rect x="21" y="22" width="1" height="1" fill="#E8D3BC" />
<rect x="22" y="22" width="1" height="1" fill="#E8D3BC" />
<rect x="23" y="22" width="1" height="1" fill="#E8D3BC" />
<rect x="24" y="22" width="1" height="1" fill="#E8D3BC" />
<rect x="25" y="22" width="1" height="1" fill="#E8D3BC" />
<rect x="26" y="22" width="1" height="1" fill="#E8D3BC" />
<rect x="27" y="22" width="1" height="1" fill="#C6A682" />
<rect x="28" y="22" width="1" height="1" fill="#000000" />
<rect x="29" y="22" width="1" height="1" fill="#000000" />
<rect x="30" y="22" width="1" height="1" fill="#000000" />
<rect x="31" y="22" width="1" height="1" fill="#000000" />
<rect x="7" y="23" width="1" height="1" fill="#800040" opacity="0.015686" />
<rect x="8" y="23" width="1" height="1" fill="#89000F" opacity="0.600000" />
<rect x="9" y="23" width="1" height="1" fill="#950013" opacity="0.615686" />
<rect x="10" y="23" width="1" height="1" fill="#961518" />
<rect x="11" y="23" width="1" height="1" fill="#349B77" />
<rect x="12" y="23" width="1" height="1" fill="#46A274" opacity="0.043137" />
<rect x="17" y="23" width="1" height="1" fill="#000000" />
<rect x="18" y="23" width="1" height="1" fill="#B9B9C1" />
<rect x="19" y="23" width="1" height="1" fill="#FFDE22" />
<rect x="20" y="23" width="1" height="1" fill="#FFDE22" />
<rect x="21" y="23" width="1" height="1" fill="#000000" />
<rect x="22" y="23" width="1" height="1" fill="#000000" />
<rect x="23" y="23" width="1" height="1" fill="#000000" />
<rect x="24" y="23" width="1" height="1" fill="#000000" />
<rect x="25" y="23" width="1" height="1" fill="#000000" />
<rect x="26" y="23" width="1" height="1" fill="#000000" />
<rect x="27" y="23" width="1" height="1" fill="#000000" />
<rect x="28" y="23" width="1" height="1" fill="#FFDE22" />
<rect x="29" y="23" width="1" height="1" fill="#FFFFFF" />
<rect x="30" y="23" width="1" height="1" fill="#FFFFFF" />
<rect x="31" y="23" width="1" height="1" fill="#B9B9C1" />
<rect x="32" y="23" width="1" height="1" fill="#000000" />
<rect x="33" y="23" width="1" height="1" fill="#000000" />
<rect x="10" y="24" width="1" height="1" fill="#349B77" />
<rect x="11" y="24" width="1" height="1" fill="#349B77" />
<rect x="12" y="24" width="1" height="1" fill="#349B77" />
<rect x="13" y="24" width="1" height="1" fill="#000000" opacity="0.003922" />
<rect x="15" y="24" width="1" height="1" fill="#000000" opacity="0.007843" />
<rect x="16" y="24" width="1" height="1" fill="#000000" />
<rect x="17" y="24" width="1" height="1" fill="#FFFFFF" />
<rect x="18" y="24" width="1" height="1" fill="#FFFFFF" />
<rect x="19" y="24" width="1" height="1" fill="#000000" />
<rect x="20" y="24" width="1" height="1" fill="#FFDE22" />
<rect x="21" y="24" width="1" height="1" fill="#000000" />
<rect x="22" y="24" width="1" height="1" fill="#252721" />
<rect x="23" y="24" width="1" height="1" fill="#252721" />
<rect x="24" y="24" width="1" height="1" fill="#252721" />
<rect x="25" y="24" width="1" height="1" fill="#252721" />
<rect x="26" y="24" width="1" height="1" fill="#FFDE22" />
<rect x="27" y="24" width="1" height="1" fill="#FFDE22" />
<rect x="28" y="24" width="1" height="1" fill="#000000" />
<rect x="29" y="24" width="1" height="1" fill="#FFFFFF" />
<rect x="30" y="24" width="1" height="1" fill="#FFFFFF" />
<rect x="31" y="24" width="1" height="1" fill="#FFFFFF" />
<rect x="32" y="24" width="1" height="1" fill="#B9B9C1" />
<rect x="33" y="24" width="1" height="1" fill="#B9B9C1" />
<rect x="34" y="24" width="1" height="1" fill="#000000" />
<rect x="10" y="25" width="1" height="1" fill="#00FFFF" opacity="0.007843" />
<rect x="11" y="25" width="1" height="1" fill="#339A76" opacity="0.996078" />
<rect x="12" y="25" width="1" height="1" fill="#36A27E" opacity="0.862745" />
<rect x="16" y="25" width="1" height="1" fill="#000000" opacity="0.984314" />
<rect x="17" y="25" width="1" height="1" fill="#FFFFFF" />
<rect x="18" y="25" width="1" height="1" fill="#FFFFFF" />
<rect x="19" y="25" width="1" height="1" fill="#B9B9C1" />
<rect x="20" y="25" width="1" height="1" fill="#000000" />
<rect x="21" y="25" width="1" height="1" fill="#FFDE22" />
<rect x="22" y="25" width="1" height="1" fill="#000000" />
<rect x="23" y="25" width="1" height="1" fill="#252721" />
<rect x="24" y="25" width="1" height="1" fill="#252721" />
<rect x="25" y="25" width="1" height="1" fill="#FFDE22" />
<rect x="26" y="25" width="1" height="1" fill="#000000" />
<rect x="27" y="25" width="1" height="1" fill="#000000" />
<rect x="28" y="25" width="1" height="1" fill="#FFFFFF" />
<rect x="29" y="25" width="1" height="1" fill="#FFFFFF" />
<rect x="30" y="25" width="1" height="1" fill="#FFFFFF" />
<rect x="31" y="25" width="1" height="1" fill="#FFFFFF" />
<rect x="32" y="25" width="1" height="1" fill="#FFFFFF" />
<rect x="33" y="25" width="1" height="1" fill="#B9B9C1" />
<rect x="34" y="25" width="1" height="1" fill="#B9B9C1" />
<rect x="35" y="25" width="1" height="1" fill="#000000" />
<rect x="11" y="26" width="1" height="1" fill="#2F8B6E" opacity="0.984314" />
<rect x="12" y="26" width="1" height="1" fill="#3AA682" opacity="0.996078" />
<rect x="15" y="26" width="1" height="1" fill="#FF0000" opacity="0.003922" />
<rect x="16" y="26" width="1" height="1" fill="#000000" opacity="0.980392" />
<rect x="17" y="26" width="1" height="1" fill="#FFFFFF" />
<rect x="18" y="26" width="1" height="1" fill="#000000" />
<rect x="19" y="26" width="1" height="1" fill="#FFFFFF" />
<rect x="20" y="26" width="1" height="1" fill="#000000" />
<rect x="21" y="26" width="1" height="1" fill="#000000" />
<rect x="22" y="26" width="1" height="1" fill="#FFDE22" />
<rect x="23" y="26" width="1" height="1" fill="#FFDE22" />
<rect x="24" y="26" width="1" height="1" fill="#FFDE22" />
<rect x="25" y="26" width="1" height="1" fill="#000000" />
<rect x="26" y="26" width="1" height="1" fill="#000000" />
<rect x="27" y="26" width="1" height="1" fill="#FFFFFF" />
<rect x="28" y="26" width="1" height="1" fill="#FFFFFF" />
<rect x="29" y="26" width="1" height="1" fill="#FFFFFF" />
<rect x="30" y="26" width="1" height="1" fill="#000000" />
<rect x="31" y="26" width="1" height="1" fill="#FFFFFF" />
<rect x="32" y="26" width="1" height="1" fill="#FFFFFF" />
<rect x="33" y="26" width="1" height="1" fill="#FFFFFF" />
<rect x="34" y="26" width="1" height="1" fill="#B9B9C1" />
<rect x="35" y="26" width="1" height="1" fill="#000000" />
<rect x="11" y="27" width="1" height="1" fill="#28755D" opacity="0.729412" />
<rect x="12" y="27" width="1" height="1" fill="#328E6E" />
<rect x="13" y="27" width="1" height="1" fill="#000000" opacity="0.937255" />
<rect x="14" y="27" width="1" height="1" fill="#000000" opacity="0.070588" />
<rect x="15" y="27" width="1" height="1" fill="#000000" opacity="0.925490" />
<rect x="16" y="27" width="1" height="1" fill="#000000" />
<rect x="17" y="27" width="1" height="1" fill="#FFFFFF" />
<rect x="18" y="27" width="1" height="1" fill="#000000" />
<rect x="19" y="27" width="1" height="1" fill="#FFFFFF" />
<rect x="20" y="27" width="1" height="1" fill="#B9B9C1" />
<rect x="21" y="27" width="1" height="1" fill="#000000" />
<rect x="22" y="27" width="1" height="1" fill="#252721" />
<rect x="23" y="27" width="1" height="1" fill="#252721" />
<rect x="24" y="27" width="1" height="1" fill="#252721" />
<rect x="25" y="27" width="1" height="1" fill="#000000" />
<rect x="26" y="27" width="1" height="1" fill="#FFFFFF" />
<rect x="27" y="27" width="1" height="1" fill="#000000" />
<rect x="28" y="27" width="1" height="1" fill="#000000" />
<rect x="29" y="27" width="1" height="1" fill="#FFFFFF" />
<rect x="30" y="27" width="1" height="1" fill="#B9B9C1" />
<rect x="31" y="27" width="1" height="1" fill="#000000" />
<rect x="32" y="27" width="1" height="1" fill="#FFFFFF" />
<rect x="33" y="27" width="1" height="1" fill="#FFFFFF" />
<rect x="34" y="27" width="1" height="1" fill="#B9B9C1" />
<rect x="35" y="27" width="1" height="1" fill="#000000" />
<rect x="11" y="28" width="1" height="1" fill="#06100E" />
<rect x="12" y="28" width="1" height="1" fill="#E8D3BC" />
<rect x="13" y="28" width="1" height="1" fill="#E8D3BC" />
<rect x="14" y="28" width="1" height="1" fill="#000000" opacity="0.960784" />
<rect x="15" y="28" width="1" height="1" fill="#FFFFFF" />
<rect x="16" y="28" width="1" height="1" fill="#000000" />
<rect x="17" y="28" width="1" height="1" fill="#FFFFFF" />
<rect x="18" y="28" width="1" height="1" fill="#000000" />
<rect x="19" y="28" width="1" height="1" fill="#FFFFFF" />
<rect x="20" y="28" width="1" height="1" fill="#B9B9C1" />
<rect x="21" y="28" width="1" height="1" fill="#000000" />
<rect x="22" y="28" width="1" height="1" fill="#252721" />
<rect x="23" y="28" width="1" height="1" fill="#252721" />
<rect x="24" y="28" width="1" height="1" fill="#252721" />
<rect x="25" y="28" width="1" height="1" fill="#000000" />
<rect x="26" y="28" width="1" height="1" fill="#FFFFFF" />
<rect x="27" y="28" width="1" height="1" fill="#FFFFFF" />
<rect x="28" y="28" width="1" height="1" fill="#FFFFFF" />
<rect x="29" y="28" width="1" height="1" fill="#FFFFFF" />
<rect x="30" y="28" width="1" height="1" fill="#B9B9C1" />
<rect x="31" y="28" width="1" height="1" fill="#000000" />
<rect x="32" y="28" width="1" height="1" fill="#FFFFFF" />
<rect x="33" y="28" width="1" height="1" fill="#FFFFFF" />
<rect x="34" y="28" width="1" height="1" fill="#B9B9C1" />
<rect x="35" y="28" width="1" height="1" fill="#000000" />
<rect x="11" y="29" width="1" height="1" fill="#000000" />
<rect x="12" y="29" width="1" height="1" fill="#E8D3BC" />
<rect x="13" y="29" width="1" height="1" fill="#E8D3BC" />
<rect x="14" y="29" width="1" height="1" fill="#020605" />
<rect x="15" y="29" width="1" height="1" fill="#FFFFFF" />
<rect x="16" y="29" width="1" height="1" fill="#000000" />
<rect x="17" y="29" width="1" height="1" fill="#FFFFFF" />
<rect x="18" y="29" width="1" height="1" fill="#000000" />
<rect x="19" y="29" width="1" height="1" fill="#FFFFFF" />
<rect x="20" y="29" width="1" height="1" fill="#B9B9C1" />
<rect x="21" y="29" width="1" height="1" fill="#000000" />
<rect x="22" y="29" width="1" height="1" fill="#252721" />
<rect x="23" y="29" width="1" height="1" fill="#252721" />
<rect x="24" y="29" width="1" height="1" fill="#252721" />
<rect x="25" y="29" width="1" height="1" fill="#000000" />
<rect x="26" y="29" width="1" height="1" fill="#FFFFFF" />
<rect x="27" y="29" width="1" height="1" fill="#FFFFFF" />
<rect x="28" y="29" width="1" height="1" fill="#FFFFFF" />
<rect x="29" y="29" width="1" height="1" fill="#FFFFFF" />
<rect x="30" y="29" width="1" height="1" fill="#000000" />
<rect x="31" y="29" width="1" height="1" fill="#FFFFFF" />
<rect x="32" y="29" width="1" height="1" fill="#FFFFFF" />
<rect x="33" y="29" width="1" height="1" fill="#FFFFFF" />
<rect x="34" y="29" width="1" height="1" fill="#B9B9C1" />
<rect x="35" y="29" width="1" height="1" fill="#000000" />
<rect x="11" y="30" width="1" height="1" fill="#000000" />
<rect x="12" y="30" width="1" height="1" fill="#E8D3BC" />
<rect x="13" y="30" width="1" height="1" fill="#C6A682" />
<rect x="14" y="30" width="1" height="1" fill="#1D5644" />
<rect x="15" y="30" width="1" height="1" fill="#FEFEFE" />
<rect x="16" y="30" width="1" height="1" fill="#000000" />
<rect x="17" y="30" width="1" height="1" fill="#FFFFFF" />
<rect x="18" y="30" width="1" height="1" fill="#000000" />
<rect x="19" y="30" width="1" height="1" fill="#FFFFFF" />
<rect x="20" y="30" width="1" height="1" fill="#FFFFFF" />
<rect x="21" y="30" width="1" height="1" fill="#000000" />
<rect x="22" y="30" width="1" height="1" fill="#252721" />
<rect x="23" y="30" width="1" height="1" fill="#252721" />
<rect x="24" y="30" width="1" height="1" fill="#252721" />
<rect x="25" y="30" width="1" height="1" fill="#000000" />
<rect x="26" y="30" width="1" height="1" fill="#FFFFFF" />
<rect x="27" y="30" width="1" height="1" fill="#FFFFFF" />
<rect x="28" y="30" width="1" height="1" fill="#FFFFFF" />
<rect x="29" y="30" width="1" height="1" fill="#000000" />
<rect x="30" y="30" width="1" height="1" fill="#000000" />
<rect x="31" y="30" width="1" height="1" fill="#000000" />
<rect x="32" y="30" width="1" height="1" fill="#FFFFFF" />
<rect x="33" y="30" width="1" height="1" fill="#B9B9C1" />
<rect x="34" y="30" width="1" height="1" fill="#000000" />
<rect x="12" y="31" width="1" height="1" fill="#010101" />
<rect x="13" y="31" width="1" height="1" fill="#2C876B" />
<rect x="14" y="31" width="1" height="1" fill="#3BAC85" />
<rect x="15" y="31" width="1" height="1" fill="#FFFFFF" />
<rect x="16" y="31" width="1" height="1" fill="#000000" />
<rect x="17" y="31" width="1" height="1" fill="#000000" />
<rect x="18" y="31" width="1" height="1" fill="#000000" />
<rect x="19" y="31" width="1" height="1" fill="#FFFFFF" />
<rect x="20" y="31" width="1" height="1" fill="#FFFFFF" />
<rect x="21" y="31" width="1" height="1" fill="#000000" />
<rect x="22" y="31" width="1" height="1" fill="#252721" />
<rect x="23" y="31" width="1" height="1" fill="#252721" />
<rect x="24" y="31" width="1" height="1" fill="#252721" />
<rect x="25" y="31" width="1" height="1" fill="#000000" />
<rect x="26" y="31" width="1" height="1" fill="#FFFFFF" />
<rect x="27" y="31" width="1" height="1" fill="#FFFFFF" />
<rect x="28" y="31" width="1" height="1" fill="#000000" />
<rect x="29" y="31" width="1" height="1" fill="#C6A682" />
<rect x="30" y="31" width="1" height="1" fill="#C6A682" />
<rect x="31" y="31" width="1" height="1" fill="#C6A682" />
<rect x="32" y="31" width="1" height="1" fill="#000000" />
<rect x="33" y="31" width="1" height="1" fill="#000000" />
<rect x="12" y="32" width="1" height="1" fill="#000000" />
<rect x="13" y="32" width="1" height="1" fill="#2B7C62" />
<rect x="14" y="32" width="1" height="1" fill="#369C7B" />
<rect x="15" y="32" width="1" height="1" fill="#B9B9C1" />
<rect x="16" y="32" width="1" height="1" fill="#000000" />
<rect x="18" y="32" width="1" height="1" fill="#000000" />
<rect x="19" y="32" width="1" height="1" fill="#B9B9C1" />
<rect x="20" y="32" width="1" height="1" fill="#FFFFFF" />
<rect x="21" y="32" width="1" height="1" fill="#000000" />
<rect x="22" y="32" width="1" height="1" fill="#000000" />
<rect x="23" y="32" width="1" height="1" fill="#000000" />
<rect x="24" y="32" width="1" height="1" fill="#000000" />
<rect x="25" y="32" width="1" height="1" fill="#000000" />
<rect x="26" y="32" width="1" height="1" fill="#FFFFFF" />
<rect x="27" y="32" width="1" height="1" fill="#B9B9C1" />
<rect x="28" y="32" width="1" height="1" fill="#000000" />
<rect x="29" y="32" width="1" height="1" fill="#E8D3BC" />
<rect x="30" y="32" width="1" height="1" fill="#E8D3BC" />
<rect x="31" y="32" width="1" height="1" fill="#E8D3BC" />
<rect x="32" y="32" width="1" height="1" fill="#000000" />
<rect x="13" y="33" width="1" height="1" fill="#174535" />
<rect x="14" y="33" width="1" height="1" fill="#2C7E64" />
<rect x="15" y="33" width="1" height="1" fill="#000000" />
<rect x="17" y="33" width="1" height="1" fill="#000000" opacity="0.003922" />
<rect x="18" y="33" width="1" height="1" fill="#000000" />
<rect x="19" y="33" width="1" height="1" fill="#B9B9C1" />
<rect x="20" y="33" width="1" height="1" fill="#FFFFFF" />
<rect x="21" y="33" width="1" height="1" fill="#000000" />
<rect x="22" y="33" width="1" height="1" fill="#B9B9C1" />
<rect x="23" y="33" width="1" height="1" fill="#B9B9C1" />
<rect x="24" y="33" width="1" height="1" fill="#B9B9C1" />
<rect x="25" y="33" width="1" height="1" fill="#000000" />
<rect x="26" y="33" width="1" height="1" fill="#FFFFFF" />
<rect x="27" y="33" width="1" height="1" fill="#FFFFFF" />
<rect x="28" y="33" width="1" height="1" fill="#FFFFFF" />
<rect x="29" y="33" width="1" height="1" fill="#000000" />
<rect x="30" y="33" width="1" height="1" fill="#000000" />
<rect x="31" y="33" width="1" height="1" fill="#000000" />
<rect x="13" y="34" width="1" height="1" fill="#316D55" opacity="0.082353" />
<rect x="14" y="34" width="1" height="1" fill="#30795F" opacity="0.231373" />
<rect x="17" y="34" width="1" height="1" fill="#000000" opacity="0.007843" />
<rect x="18" y="34" width="1" height="1" fill="#000000" />
<rect x="19" y="34" width="1" height="1" fill="#FFFFFF" />
<rect x="20" y="34" width="1" height="1" fill="#FFFFFF" />
<rect x="21" y="34" width="1" height="1" fill="#000000" />
<rect x="22" y="34" width="1" height="1" fill="#B9B9C1" />
<rect x="23" y="34" width="1" height="1" fill="#B9B9C1" />
<rect x="24" y="34" width="1" height="1" fill="#B9B9C1" />
<rect x="25" y="34" width="1" height="1" fill="#000000" />
<rect x="26" y="34" width="1" height="1" fill="#FFFFFF" />
<rect x="27" y="34" width="1" height="1" fill="#FFFFFF" />
<rect x="28" y="34" width="1" height="1" fill="#FFFFFF" />
<rect x="29" y="34" width="1" height="1" fill="#FFFFFF" />
<rect x="30" y="34" width="1" height="1" fill="#B9B9C1" />
<rect x="31" y="34" width="1" height="1" fill="#000000" />
<rect x="17" y="35" width="1" height="1" fill="#000000" opacity="0.007843" />
<rect x="18" y="35" width="1" height="1" fill="#000000" />
<rect x="19" y="35" width="1" height="1" fill="#FFFFFF" />
<rect x="20" y="35" width="1" height="1" fill="#FFFFFF" />
<rect x="21" y="35" width="1" height="1" fill="#000000" />
<rect x="22" y="35" width="1" height="1" fill="#B9B9C1" />
<rect x="23" y="35" width="1" height="1" fill="#000000" />
<rect x="24" y="35" width="1" height="1" fill="#000000" />
<rect x="25" y="35" width="1" height="1" fill="#000000" />
<rect x="26" y="35" width="1" height="1" fill="#FFFFFF" />
<rect x="27" y="35" width="1" height="1" fill="#FFFFFF" />
<rect x="28" y="35" width="1" height="1" fill="#FFFFFF" />
<rect x="29" y="35" width="1" height="1" fill="#FFFFFF" />
<rect x="30" y="35" width="1" height="1" fill="#B9B9C1" />
<rect x="31" y="35" width="1" height="1" fill="#000000" />
<rect x="17" y="36" width="1" height="1" fill="#000000" opacity="0.027451" />
<rect x="18" y="36" width="1" height="1" fill="#000000" opacity="0.972549" />
<rect x="19" y="36" width="1" height="1" fill="#000000" />
<rect x="20" y="36" width="1" height="1" fill="#000000" />
<rect x="21" y="36" width="1" height="1" fill="#B9B9C1" />
<rect x="22" y="36" width="1" height="1" fill="#B9B9C1" />
<rect x="23" y="36" width="1" height="1" fill="#000000" />
<rect x="25" y="36" width="1" height="1" fill="#000000" />
<rect x="26" y="36" width="1" height="1" fill="#000000" />
<rect x="27" y="36" width="1" height="1" fill="#000000" />
<rect x="28" y="36" width="1" height="1" fill="#000000" />
<rect x="29" y="36" width="1" height="1" fill="#000000" />
<rect x="30" y="36" width="1" height="1" fill="#000000" />
<rect x="19" y="37" width="1" height="1" fill="#000000" />
<rect x="20" y="37" width="1" height="1" fill="#B9B9C1" />
<rect x="21" y="37" width="1" height="1" fill="#B9B9C1" />
<rect x="22" y="37" width="1" height="1" fill="#B9B9C1" />
<rect x="23" y="37" width="1" height="1" fill="#000000" />
<rect x="26" y="37" width="1" height="1" fill="#000000" />
<rect x="27" y="37" width="1" height="1" fill="#B9B9C1" />
<rect x="28" y="37" width="1" height="1" fill="#B9B9C1" />
<rect x="29" y="37" width="1" height="1" fill="#B9B9C1" />
<rect x="30" y="37" width="1" height="1" fill="#000000" />
<rect x="19" y="38" width="1" height="1" fill="#000000" />
<rect x="20" y="38" width="1" height="1" fill="#B9B9C1" />
<rect x="21" y="38" width="1" height="1" fill="#B9B9C1" />
<rect x="22" y="38" width="1" height="1" fill="#B9B9C1" />
<rect x="23" y="38" width="1" height="1" fill="#000000" />
<rect x="26" y="38" width="1" height="1" fill="#000000" />
<rect x="27" y="38" width="1" height="1" fill="#B9B9C1" />
<rect x="28" y="38" width="1" height="1" fill="#B9B9C1" />
<rect x="29" y="38" width="1" height="1" fill="#B9B9C1" />
<rect x="30" y="38" width="1" height="1" fill="#000000" />
<rect x="18" y="39" width="1" height="1" fill="#000000" />
<rect x="19" y="39" width="1" height="1" fill="#252721" />
<rect x="20" y="39" width="1" height="1" fill="#252721" />
<rect x="21" y="39" width="1" height="1" fill="#252721" />
<rect x="22" y="39" width="1" height="1" fill="#252721" />
<rect x="23" y="39" width="1" height="1" fill="#000000" />
<rect x="27" y="39" width="1" height="1" fill="#252721" />
<rect x="28" y="39" width="1" height="1" fill="#252721" />
<rect x="29" y="39" width="1" height="1" fill="#252721" />
<rect x="30" y="39" width="1" height="1" fill="#000000" />
<rect x="17" y="40" width="1" height="1" fill="#000000" />
<rect x="18" y="40" width="1" height="1" fill="#252721" />
<rect x="19" y="40" width="1" height="1" fill="#252721" />
<rect x="20" y="40" width="1" height="1" fill="#252721" />
<rect x="21" y="40" width="1" height="1" fill="#252721" />
<rect x="22" y="40" width="1" height="1" fill="#252721" />
<rect x="23" y="40" width="1" height="1" fill="#000000" />
<rect x="26" y="40" width="1" height="1" fill="#000000" />
<rect x="27" y="40" width="1" height="1" fill="#252721" />
<rect x="28" y="40" width="1" height="1" fill="#252721" />
<rect x="29" y="40" width="1" height="1" fill="#252721" />
<rect x="30" y="40" width="1" height="1" fill="#252721" />
<rect x="17" y="41" width="1" height="1" fill="#000000" />
<rect x="18" y="41" width="1" height="1" fill="#000000" />
<rect x="19" y="41" width="1" height="1" fill="#000000" />
<rect x="20" y="41" width="1" height="1" fill="#000000" />
<rect x="21" y="41" width="1" height="1" fill="#000000" />
<rect x="22" y="41" width="1" height="1" fill="#000000" />
<rect x="23" y="41" width="1" height="1" fill="#000000" />
<rect x="26" y="41" width="1" height="1" fill="#000000" />
<rect x="27" y="41" width="1" height="1" fill="#000000" />
<rect x="28" y="41" width="1" height="1" fill="#000000" />
<rect x="29" y="41" width="1" height="1" fill="#000000" />
<rect x="30" y="41" width="1" height="1" fill="#000000" />
</svg>