<svg width="361" height="64" viewBox="0 0 361 64" fill="none" xmlns="http://www.w3.org/2000/svg">
<mask id="path-1-inside-1_162_5907" fill="white">
<path d="M0 8C0 3.58172 3.58172 0 8 0H353C357.418 0 361 3.58172 361 8V56C361 60.4183 357.418 64 353 64H7.99999C3.58172 64 0 60.4183 0 56V8Z"/>
</mask>
<path d="M0 8C0 3.58172 3.58172 0 8 0H353C357.418 0 361 3.58172 361 8V56C361 60.4183 357.418 64 353 64H7.99999C3.58172 64 0 60.4183 0 56V8Z" fill="#FFD700"/>
<path d="M-2 8C-2 2.47715 2.47715 -2 8 -2H353C358.523 -2 363 2.47715 363 8H359C359 4.68629 356.314 2 353 2H8C4.68629 2 2 4.68629 2 8H-2ZM363 58C363 63.5228 358.523 68 353 68H8C2.47715 68 -2 63.5228 -2 58L2 56C2 58.2091 4.68629 60 8 60H353C356.314 60 359 58.2091 359 56L363 58ZM8 68C2.47715 68 -2 63.5228 -2 58V8C-2 2.47715 2.47715 -2 8 -2V2C4.68629 2 2 4.68629 2 8V56C2 58.2091 4.68629 60 8 60V68ZM353 -2C358.523 -2 363 2.47715 363 8V58C363 63.5228 358.523 68 353 68V60C356.314 60 359 58.2091 359 56V8C359 4.68629 356.314 2 353 2V-2Z" fill="#212121" fill-opacity="0.8" mask="url(#path-1-inside-1_162_5907)"/>
</svg>
